CrickxRush.ufo
<glyph name="percent" format="1">
  <advance width="886"/>
  <unicode hex="0025"/>
  <outline>
    <contour>
      <point x="842" y="200" type="qcurve" smooth="yes"/>
      <point x="836" y="144"/>
      <point x="796" y="41"/>
      <point x="747" y="10" type="qcurve" smooth="no"/>
      <point x="699" y="-19"/>
      <point x="591" y="-28"/>
      <point x="546" y="7" type="qcurve" smooth="yes"/>
      <point x="523" y="25"/>
      <point x="515" y="72"/>
      <point x="525" y="122"/>
      <point x="542" y="174"/>
      <point x="544" y="198" type="qcurve" smooth="no"/>
      <point x="543" y="202" type="line" smooth="no"/>
      <point x="555" y="238"/>
      <point x="577" y="287"/>
      <point x="602" y="319"/>
      <point x="630" y="337"/>
      <point x="647" y="343" type="qcurve" smooth="yes"/>
      <point x="668" y="351"/>
      <point x="718" y="354"/>
      <point x="768" y="344"/>
      <point x="812" y="321"/>
      <point x="828" y="303" type="qcurve" smooth="no"/>
      <point x="833" y="293"/>
      <point x="841" y="281"/>
      <point x="845" y="263"/>
      <point x="845" y="230"/>
    </contour>
    <contour>
      <point x="705" y="690" type="qcurve" smooth="no"/>
      <point x="679" y="640"/>
      <point x="589" y="497" type="line" smooth="yes"/>
      <point x="286" y="-23" type="line" smooth="no"/>
      <point x="253" y="-7"/>
      <point x="199" y="16"/>
      <point x="166" y="33" type="qcurve" smooth="no"/>
      <point x="241" y="163"/>
      <point x="269" y="201" type="qcurve" smooth="no"/>
      <point x="273" y="214" type="line" smooth="no"/>
      <point x="564" y="688" type="line" smooth="no"/>
      <point x="566" y="687" type="line" smooth="no"/>
      <point x="571" y="699"/>
      <point x="585" y="723"/>
      <point x="593" y="734" type="qcurve" smooth="no"/>
      <point x="611" y="729"/>
      <point x="687" y="696"/>
    </contour>
    <contour>
      <point x="345" y="608" type="qcurve" smooth="yes"/>
      <point x="347" y="580"/>
      <point x="345" y="524"/>
      <point x="333" y="471"/>
      <point x="307" y="423"/>
      <point x="285" y="404" type="qcurve" smooth="yes"/>
      <point x="243" y="367"/>
      <point x="152" y="346"/>
      <point x="101" y="374" type="qcurve" smooth="yes"/>
      <point x="75" y="388"/>
      <point x="56" y="430"/>
      <point x="51" y="478"/>
      <point x="55" y="531"/>
      <point x="53" y="555" type="qcurve" smooth="no"/>
      <point x="51" y="558" type="line" smooth="no"/>
      <point x="56" y="596"/>
      <point x="70" y="648"/>
      <point x="89" y="683"/>
      <point x="114" y="706"/>
      <point x="129" y="715" type="qcurve" smooth="yes"/>
      <point x="168" y="738"/>
      <point x="258" y="737"/>
      <point x="296" y="707" type="qcurve" smooth="no"/>
      <point x="302" y="698"/>
      <point x="318" y="687"/>
      <point x="332" y="670"/>
      <point x="343" y="638"/>
    </contour>
    <contour>
      <point x="713" y="162" type="line" smooth="no"/>
      <point x="710" y="162" type="line" smooth="no"/>
      <point x="710" y="161" type="line" smooth="no"/>
      <point x="713" y="160" type="line" smooth="no"/>
    </contour>
    <contour>
      <point x="715" y="209" type="line" smooth="no"/>
      <point x="713" y="215"/>
      <point x="696" y="217"/>
      <point x="689" y="217" type="qcurve" smooth="no"/>
      <point x="677" y="215"/>
      <point x="660" y="196"/>
      <point x="662" y="182" type="qcurve" smooth="no"/>
      <point x="657" y="156"/>
      <point x="655" y="148"/>
      <point x="655" y="149"/>
      <point x="654" y="142"/>
      <point x="650" y="116" type="qcurve" smooth="no"/>
      <point x="664" y="116"/>
      <point x="693" y="126"/>
      <point x="703" y="138" type="qcurve" smooth="no"/>
      <point x="708" y="155"/>
      <point x="713" y="168"/>
      <point x="713" y="170"/>
      <point x="712" y="167"/>
      <point x="712" y="169"/>
      <point x="713" y="181"/>
      <point x="716" y="198" type="qcurve" smooth="no"/>
    </contour>
    <contour>
      <point x="567" y="205" type="line" smooth="no"/>
      <point x="567" y="203" type="line" smooth="no"/>
      <point x="569" y="203" type="line" smooth="no"/>
      <point x="569" y="204" type="line" smooth="no"/>
    </contour>
    <contour>
      <point x="226" y="548" type="line" smooth="no"/>
      <point x="223" y="548" type="line" smooth="no"/>
      <point x="223" y="547" type="line" smooth="no"/>
      <point x="226" y="546" type="line" smooth="no"/>
    </contour>
    <contour>
      <point x="599" y="167" type="line" smooth="no"/>
      <point x="596" y="167"/>
      <point x="595" y="166" type="qcurve" smooth="no"/>
      <point x="598" y="164" type="line" smooth="no"/>
    </contour>
    <contour>
      <point x="219" y="595" type="line" smooth="no"/>
      <point x="215" y="601"/>
      <point x="199" y="599"/>
      <point x="193" y="599" type="qcurve" smooth="no"/>
      <point x="181" y="594"/>
      <point x="167" y="572"/>
      <point x="172" y="559" type="qcurve" smooth="no"/>
      <point x="172" y="529" type="line" smooth="no"/>
      <point x="172" y="535"/>
      <point x="173" y="535"/>
      <point x="173" y="523"/>
      <point x="174" y="506" type="qcurve" smooth="no"/>
      <point x="180" y="498"/>
      <point x="193" y="496"/>
      <point x="205" y="503"/>
      <point x="216" y="516"/>
      <point x="219" y="523" type="qcurve" smooth="no"/>
      <point x="223" y="549"/>
      <point x="225" y="556"/>
      <point x="224" y="553"/>
      <point x="222" y="559"/>
      <point x="222" y="584" type="qcurve" smooth="no"/>
    </contour>
    <contour>
      <point x="678" y="29" type="line" smooth="no"/>
      <point x="675" y="29" type="line" smooth="no"/>
      <point x="675" y="28" type="line" smooth="no"/>
      <point x="678" y="27" type="line" smooth="no"/>
    </contour>
    <contour>
      <point x="112" y="533" type="line" smooth="no"/>
      <point x="110" y="533"/>
      <point x="109" y="532"/>
      <point x="108" y="532" type="qcurve" smooth="yes"/>
      <point x="112" y="530" type="line" smooth="no"/>
    </contour>
    <contour>
      <point x="74" y="565" type="line" smooth="no"/>
      <point x="74" y="563" type="line" smooth="no"/>
      <point x="76" y="563" type="line" smooth="no"/>
      <point x="77" y="565" type="line" smooth="no"/>
    </contour>
    <contour>
      <point x="214" y="411" type="line" smooth="no"/>
      <point x="211" y="411" type="line" smooth="no"/>
      <point x="212" y="410" type="line" smooth="no"/>
      <point x="215" y="409" type="line" smooth="no"/>
    </contour>
  </outline>
</glyph>
<glyph name="ampersand" format="1">
  <advance width="747"/>
  <unicode hex="0026"/>
  <outline>
    <contour>
      <point x="212" y="613" type="line" smooth="no"/>
      <point x="209" y="616" type="line" smooth="no"/>
      <point x="210" y="617" type="line" smooth="no"/>
      <point x="213" y="614" type="line" smooth="no"/>
    </contour>
    <contour>
      <point x="720" y="299" type="line" smooth="no"/>
      <point x="705" y="282"/>
      <point x="649" y="241" type="line" smooth="no"/>
      <point x="655" y="233"/>
      <point x="680" y="229"/>
      <point x="703" y="223"/>
      <point x="716" y="210"/>
      <point x="710" y="194" type="qcurve" smooth="no"/>
      <point x="702" y="77" type="line" smooth="no"/>
      <point x="676" y="82"/>
      <point x="626" y="102"/>
      <point x="603" y="109" type="qcurve" smooth="no"/>
      <point x="536" y="141" type="line" smooth="no"/>
      <point x="506" y="112"/>
      <point x="440" y="57"/>
      <point x="365" y="18"/>
      <point x="282" y="1"/>
      <point x="236" y="11" type="qcurve" smooth="yes"/>
      <point x="188" y="22"/>
      <point x="111" y="79"/>
      <point x="96" y="127" type="qcurve" smooth="yes"/>
      <point x="85" y="162"/>
      <point x="76" y="225"/>
      <point x="83" y="261" type="qcurve" smooth="no"/>
      <point x="86" y="261" type="line" smooth="no"/>
      <point x="81" y="264"/>
      <point x="89" y="269"/>
      <point x="86" y="274" type="qcurve" smooth="no"/>
      <point x="88" y="274" type="line" smooth="no"/>
      <point x="88" y="282" type="line" smooth="no"/>
      <point x="90" y="283" type="line" smooth="no"/>
      <point x="93" y="308"/>
      <point x="106" y="330" type="qcurve" smooth="no"/>
      <point x="126" y="373"/>
      <point x="194" y="437"/>
      <point x="237" y="457" type="qcurve" smooth="no"/>
      <point x="237" y="460" type="line" smooth="no"/>
      <point x="230" y="457" type="line" smooth="no"/>
      <point x="222" y="470"/>
      <point x="209" y="503"/>
      <point x="202" y="537"/>
      <point x="202" y="570"/>
      <point x="207" y="582" type="qcurve" smooth="no"/>
      <point x="205" y="588"/>
      <point x="207" y="602"/>
      <point x="212" y="615"/>
      <point x="214" y="625"/>
      <point x="212" y="628" type="qcurve" smooth="no"/>
      <point x="218" y="640"/>
      <point x="217" y="647" type="qcurve" smooth="no"/>
      <point x="220" y="647" type="line" smooth="no"/>
      <point x="218" y="649"/>
      <point x="219" y="651"/>
      <point x="221" y="653"/>
      <point x="219" y="655" type="qcurve" smooth="no"/>
      <point x="222" y="656" type="line" smooth="no"/>
      <point x="224" y="685"/>
      <point x="259" y="726"/>
      <point x="281" y="747" type="qcurve" smooth="no"/>
      <point x="321" y="775"/>
      <point x="429" y="800"/>
      <point x="479" y="783" type="qcurve" smooth="no"/>
      <point x="497" y="780"/>
      <point x="535" y="763"/>
      <point x="569" y="739"/>
      <point x="595" y="708"/>
      <point x="602" y="690" type="qcurve" smooth="yes"/>
      <point x="614" y="659"/>
      <point x="621" y="593"/>
      <point x="609" y="528"/>
      <point x="578" y="470"/>
      <point x="551" y="446" type="qcurve" smooth="yes"/>
      <point x="532" y="429"/>
      <point x="486" y="406"/>
      <point x="465" y="392" type="qcurve" smooth="no"/>
      <point x="466" y="388" type="line" smooth="no"/>
      <point x="563" y="318" type="line" smooth="no"/>
      <point x="572" y="321"/>
      <point x="580" y="321"/>
      <point x="587" y="329" type="qcurve" smooth="no"/>
      <point x="622" y="349"/>
      <point x="721" y="412" type="line" smooth="no"/>
    </contour>
    <contour>
      <point x="80" y="213" type="line" smooth="no"/>
      <point x="77" y="215" type="line" smooth="no"/>
      <point x="78" y="217" type="line" smooth="no"/>
      <point x="81" y="215" type="line" smooth="no"/>
    </contour>
    <contour>
      <point x="81" y="197" type="line" smooth="no"/>
      <point x="78" y="199" type="line" smooth="no"/>
      <point x="79" y="200" type="line" smooth="no"/>
      <point x="82" y="198" type="line" smooth="no"/>
    </contour>
    <contour>
      <point x="492" y="572" type="qcurve" smooth="no"/>
      <point x="487" y="585"/>
      <point x="464" y="600"/>
      <point x="451" y="603" type="qcurve" smooth="yes"/>
      <point x="431" y="607"/>
      <point x="405" y="581"/>
      <point x="395" y="568" type="qcurve" smooth="no"/>
      <point x="398" y="565" type="line" smooth="no"/>
      <point x="393" y="556"/>
      <point x="394" y="532"/>
      <point x="398" y="522" type="qcurve" smooth="no"/>
      <point x="399" y="511"/>
      <point x="409" y="506"/>
      <point x="423" y="507"/>
      <point x="437" y="511"/>
      <point x="443" y="511" type="qcurve" smooth="no"/>
      <point x="458" y="519"/>
      <point x="490" y="549"/>
    </contour>
    <contour>
      <point x="644" y="240" type="line" smooth="no"/>
      <point x="643" y="238" type="line" smooth="no"/>
      <point x="646" y="236" type="line" smooth="no"/>
      <point x="647" y="238" type="line" smooth="no"/>
    </contour>
    <contour>
      <point x="251" y="468" type="line" smooth="no"/>
      <point x="250" y="466" type="line" smooth="no"/>
      <point x="253" y="463" type="line" smooth="no"/>
      <point x="254" y="465" type="line" smooth="no"/>
    </contour>
    <contour>
      <point x="243" y="467" type="line" smooth="no"/>
      <point x="242" y="465" type="line" smooth="no"/>
      <point x="245" y="463" type="line" smooth="no"/>
      <point x="246" y="465" type="line" smooth="no"/>
    </contour>
    <contour>
      <point x="252" y="451" type="line" smooth="no"/>
      <point x="251" y="450" type="line" smooth="no"/>
      <point x="254" y="447" type="line" smooth="no"/>
      <point x="255" y="449" type="line" smooth="no"/>
    </contour>
    <contour>
      <point x="236" y="462" type="line" smooth="no"/>
      <point x="235" y="461" type="line" smooth="no"/>
      <point x="238" y="458" type="line" smooth="no"/>
      <point x="239" y="460" type="line" smooth="no"/>
    </contour>
    <contour>
      <point x="328" y="330" type="line" smooth="no"/>
      <point x="327" y="328" type="line" smooth="no"/>
      <point x="330" y="325" type="line" smooth="no"/>
      <point x="331" y="327" type="line" smooth="no"/>
    </contour>
    <contour>
      <point x="400" y="229" type="qcurve" smooth="no"/>
      <point x="380" y="246"/>
      <point x="337" y="278"/>
      <point x="320" y="295" type="qcurve" smooth="no"/>
      <point x="306" y="285"/>
      <point x="297" y="246"/>
      <point x="304" y="229" type="qcurve" smooth="no"/>
      <point x="312" y="219"/>
      <point x="337" y="214"/>
      <point x="364" y="217"/>
      <point x="390" y="225"/>
    </contour>
    <contour>
      <point x="370" y="210" type="line" smooth="no"/>
      <point x="369" y="209" type="line" smooth="no"/>
      <point x="372" y="206" type="line" smooth="no"/>
      <point x="373" y="207" type="line" smooth="no"/>
    </contour>
    <contour>
      <point x="88" y="249" type="line" smooth="no"/>
      <point x="86" y="246" type="line" smooth="no"/>
    </contour>
    <contour>
      <point x="200" y="93" type="line" smooth="no"/>
      <point x="198" y="92" type="line" smooth="no"/>
      <point x="201" y="89" type="line" smooth="no"/>
      <point x="203" y="91" type="line" smooth="no"/>
    </contour>
    <contour>
      <point x="187" y="93" type="line" smooth="no"/>
      <point x="186" y="92" type="line" smooth="no"/>
      <point x="189" y="89" type="line" smooth="no"/>
      <point x="190" y="91" type="line" smooth="no"/>
    </contour>
    <contour>
      <point x="197" y="93" type="line" smooth="no"/>
      <point x="195" y="91"/>
      <point x="195" y="82"/>
      <point x="190" y="84" type="qcurve" smooth="no"/>
      <point x="188" y="83"/>
      <point x="188" y="79" type="qcurve" smooth="no"/>
      <point x="196" y="80" type="line" smooth="no"/>
      <point x="196" y="76" type="line" smooth="no"/>
      <point x="200" y="80"/>
      <point x="196" y="92"/>
      <point x="195" y="94" type="qcurve" smooth="no"/>
      <point x="193" y="94" type="line" smooth="no"/>
    </contour>
  </outline>
</glyph>
<glyph name="quotesingle" format="1">
  <advance width="141"/>
  <unicode hex="0027"/>
  <outline>
    <contour>
      <point x="120" y="497" type="line" smooth="no"/>
      <point x="103" y="434" type="line" smooth="no"/>
      <point x="79" y="419" type="line" smooth="no"/>
      <point x="50" y="423" type="line" smooth="no"/>
      <point x="41" y="541" type="line" smooth="no"/>
      <point x="32" y="541"/>
      <point x="25" y="550"/>
      <point x="21" y="560"/>
      <point x="14" y="568"/>
      <point x="4" y="568" type="qcurve" smooth="no"/>
      <point x="-1" y="645" type="line" smooth="no"/>
      <point x="1" y="645" type="line" smooth="no"/>
      <point x="1" y="658"/>
      <point x="2" y="684"/>
      <point x="4" y="697" type="qcurve" smooth="no"/>
      <point x="40" y="704"/>
      <point x="109" y="701"/>
      <point x="147" y="707" type="qcurve" smooth="no"/>
      <point x="145" y="682" type="line" smooth="no"/>
      <point x="149" y="579" type="line" smooth="no"/>
    </contour>
  </outline>
</glyph>
<glyph name="parenleft" format="1">
  <advance width="483"/>
  <unicode hex="0028"/>
  <outline>
    <contour>
      <point x="425" y="747" type="qcurve" smooth="no"/>
      <point x="424" y="747"/>
      <point x="418" y="721"/>
      <point x="411" y="683"/>
      <point x="404" y="638"/>
      <point x="392" y="574"/>
      <point x="391" y="574" type="qcurve" smooth="yes"/>
      <point x="382" y="572"/>
      <point x="360" y="563"/>
      <point x="341" y="548"/>
      <point x="329" y="530"/>
      <point x="331" y="521" type="qcurve" smooth="no"/>
      <point x="326" y="496"/>
      <point x="269" y="127"/>
      <point x="266" y="103" type="qcurve" smooth="no"/>
      <point x="269" y="97"/>
      <point x="283" y="91"/>
      <point x="298" y="86"/>
      <point x="308" y="81"/>
      <point x="307" y="78" type="qcurve" smooth="yes"/>
      <point x="305" y="71"/>
      <point x="294" y="16"/>
      <point x="287" y="-15" type="qcurve" smooth="yes"/>
      <point x="270" y="-95" type="line" smooth="no"/>
      <point x="238" y="-90"/>
      <point x="210" y="-84" type="qcurve" smooth="yes"/>
      <point x="186" y="-79"/>
      <point x="135" y="-62"/>
      <point x="120" y="-49" type="qcurve" smooth="yes"/>
      <point x="99" y="-32"/>
      <point x="82" y="24"/>
      <point x="82" y="92"/>
      <point x="94" y="168"/>
      <point x="109" y="240"/>
      <point x="124" y="303"/>
      <point x="126" y="326" type="qcurve" smooth="no"/>
      <point x="124" y="331" type="line" smooth="no"/>
      <point x="135" y="365"/>
      <point x="146" y="446"/>
      <point x="159" y="529"/>
      <point x="176" y="610"/>
      <point x="211" y="680"/>
      <point x="266" y="733"/>
      <point x="310" y="746" type="qcurve" smooth="yes"/>
      <point x="335" y="754"/>
      <point x="396" y="750"/>
    </contour>
    <contour>
      <point x="107" y="332" type="line" smooth="no"/>
      <point x="104" y="333" type="line" smooth="no"/>
      <point x="104" y="335" type="line" smooth="no"/>
      <point x="108" y="334" type="line" smooth="no"/>
    </contour>
    <contour>
      <point x="184" y="478" type="line" smooth="no"/>
      <point x="181" y="479"/>
      <point x="179" y="477" type="qcurve" smooth="no"/>
      <point x="183" y="474" type="line" smooth="no"/>
    </contour>
  </outline>
</glyph>
<glyph name="plus" format="1">
  <advance width="722"/>
  <unicode hex="002b"/>
  <outline>
    <contour>
      <point x="485" y="232" type="line" smooth="no"/>
      <point x="485" y="0" type="line" smooth="no"/>
      <point x="348" y="0" type="line" smooth="no"/>
      <point x="348" y="232" type="line" smooth="no"/>
      <point x="124" y="232" type="line" smooth="no"/>
      <point x="124" y="365" type="line" smooth="no"/>
      <point x="348" y="365" type="line" smooth="no"/>
      <point x="348" y="596" type="line" smooth="no"/>
      <point x="485" y="596" type="line" smooth="no"/>
      <point x="485" y="365" type="line" smooth="no"/>
      <point x="709" y="365" type="line" smooth="no"/>
      <point x="709" y="232" type="line" smooth="no"/>
    </contour>
  </outline>
</glyph>
<glyph name="comma" format="1">
  <advance width="316"/>
  <unicode hex="002c"/>
  <outline>
    <contour>
      <point x="235" y="-48" type="line" smooth="no"/>
      <point x="201" y="-113" type="line" smooth="no"/>
      <point x="149" y="-120" type="line" smooth="no"/>
      <point x="112" y="-116" type="line" smooth="no"/>
      <point x="136" y="-1" type="line" smooth="no"/>
      <point x="113" y="-2"/>
      <point x="42" y="-2" type="line" smooth="no"/>
      <point x="46" y="106" type="line" smooth="no"/>
      <point x="49" y="106" type="line" smooth="no"/>
      <point x="49" y="119"/>
      <point x="51" y="145"/>
      <point x="53" y="158" type="qcurve" smooth="no"/>
      <point x="100" y="165"/>
      <point x="187" y="162"/>
      <point x="236" y="168" type="qcurve" smooth="no"/>
      <point x="234" y="143" type="line" smooth="no"/>
      <point x="252" y="48" type="line" smooth="no"/>
    </contour>
  </outline>
</glyph>
<glyph name="hyphen" format="1">
  <advance width="369"/>
  <unicode hex="002d"/>
  <unicode hex="00ad"/>
  <outline>
    <contour>
      <point x="342" y="336" type="qcurve" smooth="no"/>
      <point x="334" y="299"/>
      <point x="312" y="188" type="line" smooth="no"/>
      <point x="293" y="188"/>
      <point x="136" y="190"/>
      <point x="60" y="189"/>
      <point x="41" y="188" type="qcurve" smooth="no"/>
      <point x="41" y="186"/>
      <point x="47" y="206"/>
      <point x="72" y="313"/>
      <point x="79" y="335"/>
      <point x="80" y="333" type="qcurve" smooth="no"/>
      <point x="81" y="334"/>
      <point x="121" y="335"/>
      <point x="167" y="335"/>
      <point x="207" y="334"/>
      <point x="209" y="334" type="qcurve" smooth="yes"/>
      <point x="238" y="333"/>
      <point x="312" y="337"/>
    </contour>
  </outline>
</glyph>
<glyph name="five" format="1">
  <advance width="645"/>
  <unicode hex="0035"/>
  <outline>
    <contour>
      <point x="532" y="581" type="line" smooth="no"/>
      <point x="481" y="578"/>
      <point x="376" y="571"/>
      <point x="322" y="571" type="qcurve" smooth="no"/>
      <point x="315" y="560"/>
      <point x="315" y="534"/>
      <point x="312" y="522" type="qcurve" smooth="no"/>
      <point x="316" y="518" type="line" smooth="no"/>
      <point x="337" y="524"/>
      <point x="383" y="530"/>
      <point x="428" y="526"/>
      <point x="469" y="511"/>
      <point x="485" y="496" type="qcurve" smooth="yes"/>
      <point x="515" y="469"/>
      <point x="528" y="399"/>
      <point x="522" y="323"/>
      <point x="509" y="245"/>
      <point x="512" y="209" type="qcurve" smooth="no"/>
      <point x="505" y="168"/>
      <point x="477" y="132" type="qcurve" smooth="yes"/>
      <point x="453" y="101"/>
      <point x="394" y="60"/>
      <point x="328" y="35"/>
      <point x="255" y="24"/>
      <point x="217" y="24" type="qcurve" smooth="no"/>
      <point x="197" y="26"/>
      <point x="157" y="37"/>
      <point x="123" y="58"/>
      <point x="97" y="88"/>
      <point x="91" y="108" type="qcurve" smooth="no"/>
      <point x="89" y="144"/>
      <point x="97" y="208"/>
      <point x="99" y="241" type="qcurve" smooth="no"/>
      <point x="137" y="250"/>
      <point x="218" y="261"/>
      <point x="256" y="268" type="qcurve" smooth="no"/>
      <point x="256" y="258"/>
      <point x="253" y="239"/>
      <point x="254" y="222"/>
      <point x="262" y="207"/>
      <point x="273" y="202" type="qcurve" smooth="no"/>
      <point x="283" y="200"/>
      <point x="300" y="205"/>
      <point x="314" y="217"/>
      <point x="330" y="238" type="line" smooth="no"/>
      <point x="335" y="264"/>
      <point x="343" y="311"/>
      <point x="346" y="338" type="qcurve" smooth="yes"/>
      <point x="347" y="349"/>
      <point x="334" y="368"/>
      <point x="325" y="373" type="qcurve" smooth="no"/>
      <point x="311" y="378"/>
      <point x="287" y="371"/>
      <point x="277" y="363" type="qcurve" smooth="no"/>
      <point x="269" y="359"/>
      <point x="263" y="345"/>
      <point x="257" y="333"/>
      <point x="247" y="325"/>
      <point x="236" y="328" type="qcurve" smooth="no"/>
      <point x="205" y="326"/>
      <point x="141" y="319"/>
      <point x="107" y="314" type="qcurve" smooth="no"/>
      <point x="110" y="417"/>
      <point x="131" y="622"/>
      <point x="136" y="726" type="qcurve" smooth="no"/>
      <point x="182" y="730" type="line" smooth="no"/>
      <point x="422" y="740" type="line" smooth="no"/>
      <point x="450" y="744"/>
      <point x="507" y="746"/>
      <point x="536" y="748" type="qcurve" smooth="no"/>
      <point x="540" y="740" type="line" smooth="no"/>
    </contour>
    <contour>
      <point x="495" y="170" type="line" smooth="no"/>
      <point x="493" y="170" type="line" smooth="no"/>
      <point x="493" y="166" type="line" smooth="no"/>
      <point x="495" y="166" type="line" smooth="no"/>
    </contour>
    <contour>
      <point x="400" y="99" type="line" smooth="no"/>
      <point x="399" y="99" type="line" smooth="no"/>
      <point x="399" y="95" type="line" smooth="no"/>
      <point x="400" y="95" type="line" smooth="no"/>
    </contour>
    <contour>
      <point x="242" y="255" type="line" smooth="no"/>
      <point x="240" y="255" type="line" smooth="no"/>
      <point x="240" y="251" type="line" smooth="no"/>
      <point x="242" y="251" type="line" smooth="no"/>
    </contour>
    <contour>
      <point x="252" y="234" type="line" smooth="no"/>
      <point x="250" y="234" type="line" smooth="no"/>
      <point x="250" y="232" type="line" smooth="no"/>
      <point x="252" y="232" type="line" smooth="no"/>
    </contour>
  </outline>
</glyph>
<glyph name="eight" format="1">
  <advance width="633"/>
  <unicode hex="0038"/>
  <outline>
    <contour>
      <point x="586" y="612" type="qcurve" smooth="yes"/>
      <point x="584" y="565"/>
      <point x="563" y="426" type="line" smooth="no"/>
      <point x="554" y="403"/>
      <point x="520" y="369"/>
      <point x="501" y="354" type="qcurve" smooth="no"/>
      <point x="508" y="345"/>
      <point x="523" y="328"/>
      <point x="528" y="316" type="qcurve" smooth="no"/>
      <point x="534" y="292"/>
      <point x="539" y="237"/>
      <point x="534" y="182"/>
      <point x="514" y="131"/>
      <point x="494" y="112" type="qcurve" smooth="no"/>
      <point x="468" y="80"/>
      <point x="401" y="37"/>
      <point x="326" y="16"/>
      <point x="246" y="18"/>
      <point x="207" y="30" type="qcurve" smooth="yes"/>
      <point x="181" y="38"/>
      <point x="132" y="74"/>
      <point x="124" y="102" type="qcurve" smooth="yes"/>
      <point x="117" y="126"/>
      <point x="115" y="176"/>
      <point x="119" y="225"/>
      <point x="126" y="274"/>
      <point x="128" y="297" type="qcurve" smooth="no"/>
      <point x="134" y="320"/>
      <point x="167" y="361"/>
      <point x="187" y="375" type="qcurve" smooth="no"/>
      <point x="176" y="392"/>
      <point x="153" y="424"/>
      <point x="151" y="445" type="qcurve" smooth="yes"/>
      <point x="150" y="465"/>
      <point x="149" y="507"/>
      <point x="153" y="548"/>
      <point x="164" y="586"/>
      <point x="175" y="602" type="qcurve" smooth="yes"/>
      <point x="185" y="617"/>
      <point x="212" y="645"/>
      <point x="242" y="669"/>
      <point x="274" y="686"/>
      <point x="291" y="689" type="qcurve" smooth="no"/>
      <point x="298" y="696"/>
      <point x="326" y="703"/>
      <point x="337" y="708" type="qcurve" smooth="no"/>
      <point x="374" y="715"/>
      <point x="435" y="721"/>
      <point x="473" y="710" type="qcurve" smooth="yes"/>
      <point x="478" y="708"/>
      <point x="496" y="703"/>
      <point x="504" y="700" type="qcurve" smooth="yes"/>
      <point x="517" y="694"/>
      <point x="547" y="678"/>
      <point x="571" y="656"/>
      <point x="587" y="628"/>
    </contour>
    <contour>
      <point x="408" y="511" type="qcurve" smooth="no"/>
      <point x="403" y="523"/>
      <point x="383" y="532"/>
      <point x="361" y="529"/>
      <point x="339" y="519"/>
      <point x="332" y="512" type="qcurve" smooth="no"/>
      <point x="319" y="494"/>
      <point x="323" y="449"/>
      <point x="334" y="432" type="qcurve" smooth="no"/>
      <point x="340" y="431"/>
      <point x="372" y="443"/>
      <point x="379" y="442" type="qcurve" smooth="no"/>
      <point x="399" y="448"/>
      <point x="408" y="492"/>
    </contour>
    <contour>
      <point x="365" y="266" type="line" smooth="yes"/>
      <point x="363" y="279"/>
      <point x="351" y="285"/>
      <point x="335" y="282"/>
      <point x="317" y="275"/>
      <point x="310" y="275" type="qcurve" smooth="no"/>
      <point x="295" y="270"/>
      <point x="288" y="243"/>
      <point x="283" y="232" type="qcurve" smooth="yes"/>
      <point x="279" y="221"/>
      <point x="285" y="197"/>
      <point x="295" y="189" type="qcurve" smooth="no"/>
      <point x="303" y="181"/>
      <point x="323" y="178"/>
      <point x="334" y="181" type="qcurve" smooth="yes"/>
      <point x="354" y="188"/>
      <point x="367" y="225"/>
      <point x="369" y="244" type="qcurve" smooth="no"/>
    </contour>
  </outline>
</glyph>
<glyph name="nine" format="1">
  <advance width="633"/>
  <unicode hex="0039"/>
  <outline>
    <contour>
      <point x="492" y="264" type="line" smooth="yes"/>
      <point x="487" y="237"/>
      <point x="470" y="180"/>
      <point x="443" y="129"/>
      <point x="405" y="88"/>
      <point x="378" y="78" type="qcurve" smooth="no"/>
      <point x="370" y="77"/>
      <point x="356" y="64"/>
      <point x="348" y="67" type="qcurve" smooth="no"/>
      <point x="350" y="65" type="line" smooth="no"/>
      <point x="323" y="57"/>
      <point x="261" y="49"/>
      <point x="200" y="52"/>
      <point x="142" y="67"/>
      <point x="119" y="83" type="qcurve" smooth="no"/>
      <point x="87" y="118" type="line" smooth="no"/>
      <point x="79" y="137"/>
      <point x="79" y="175"/>
      <point x="86" y="214"/>
      <point x="94" y="253"/>
      <point x="96" y="273" type="qcurve" smooth="no"/>
      <point x="128" y="281"/>
      <point x="202" y="283"/>
      <point x="240" y="286" type="qcurve" smooth="no"/>
      <point x="238" y="279"/>
      <point x="234" y="262"/>
      <point x="233" y="245"/>
      <point x="238" y="229"/>
      <point x="244" y="223" type="qcurve" smooth="yes"/>
      <point x="252" y="215"/>
      <point x="275" y="214"/>
      <point x="286" y="216" type="qcurve" smooth="no"/>
      <point x="297" y="221"/>
      <point x="318" y="235"/>
      <point x="322" y="246" type="qcurve" smooth="no"/>
      <point x="341" y="382" type="line" smooth="no"/>
      <point x="324" y="377"/>
      <point x="284" y="370"/>
      <point x="242" y="367"/>
      <point x="200" y="372"/>
      <point x="182" y="380" type="qcurve" smooth="yes"/>
      <point x="159" y="391"/>
      <point x="127" y="427"/>
      <point x="120" y="450" type="qcurve" smooth="no"/>
      <point x="127" y="481"/>
      <point x="134" y="545"/>
      <point x="150" y="607"/>
      <point x="181" y="662"/>
      <point x="211" y="683" type="qcurve" smooth="yes"/>
      <point x="238" y="702"/>
      <point x="303" y="730"/>
      <point x="372" y="742"/>
      <point x="443" y="736"/>
      <point x="476" y="723" type="qcurve" smooth="yes"/>
      <point x="502" y="712"/>
      <point x="544" y="669"/>
      <point x="552" y="642" type="qcurve" smooth="no"/>
      <point x="557" y="599" type="line" smooth="no"/>
    </contour>
    <contour>
      <point x="283" y="601" type="line" smooth="no"/>
      <point x="277" y="605" type="line" smooth="no"/>
    </contour>
    <contour>
      <point x="366" y="548" type="qcurve" smooth="yes"/>
      <point x="364" y="557"/>
      <point x="350" y="569"/>
      <point x="342" y="574" type="qcurve" smooth="no"/>
      <point x="325" y="576"/>
      <point x="303" y="576"/>
      <point x="292" y="562" type="qcurve" smooth="yes"/>
      <point x="281" y="548"/>
      <point x="273" y="516"/>
      <point x="281" y="499" type="qcurve" smooth="no"/>
      <point x="292" y="479"/>
      <point x="333" y="469"/>
      <point x="354" y="471" type="qcurve" smooth="no"/>
      <point x="354" y="481"/>
      <point x="361" y="499"/>
      <point x="367" y="517"/>
      <point x="369" y="536"/>
    </contour>
    <contour>
      <point x="190" y="639" type="line" smooth="no"/>
      <point x="188" y="639" type="line" smooth="no"/>
      <point x="188" y="635" type="line" smooth="no"/>
      <point x="190" y="635" type="line" smooth="no"/>
    </contour>
    <contour>
      <point x="353" y="457" type="line" smooth="no"/>
      <point x="351" y="457" type="line" smooth="no"/>
      <point x="351" y="453" type="line" smooth="no"/>
      <point x="353" y="453" type="line" smooth="no"/>
    </contour>
    <contour>
      <point x="349" y="445" type="line" smooth="no"/>
      <point x="347" y="436" type="line" smooth="no"/>
      <point x="349" y="440" type="line" smooth="no"/>
    </contour>
    <contour>
      <point x="347" y="430" type="line" smooth="no"/>
      <point x="346" y="430" type="line" smooth="no"/>
      <point x="346" y="426" type="line" smooth="no"/>
      <point x="347" y="426" type="line" smooth="no"/>
    </contour>
    <contour>
      <point x="346" y="426" type="line" smooth="no"/>
      <point x="344" y="426" type="line" smooth="no"/>
      <point x="344" y="422" type="line" smooth="no"/>
      <point x="346" y="422" type="line" smooth="no"/>
    </contour>
    <contour>
      <point x="344" y="412" type="line" smooth="no"/>
      <point x="342" y="412" type="line" smooth="no"/>
      <point x="342" y="408" type="line" smooth="no"/>
      <point x="344" y="408" type="line" smooth="no"/>
    </contour>
    <contour>
      <point x="342" y="402" type="line" smooth="no"/>
      <point x="341" y="392" type="line" smooth="no"/>
    </contour>
    <contour>
      <point x="335" y="305" type="line" smooth="no"/>
      <point x="333" y="305" type="line" smooth="no"/>
      <point x="333" y="302" type="line" smooth="no"/>
      <point x="335" y="302" type="line" smooth="no"/>
    </contour>
  </outline>
</glyph>
<glyph name="colon" format="1">
  <advance width="316"/>
  <unicode hex="003a"/>
  <outline>
    <contour>
      <point x="279" y="545" type="qcurve" smooth="no"/>
      <point x="276" y="510"/>
      <point x="271" y="461"/>
      <point x="270" y="441" type="qcurve" smooth="yes"/>
      <point x="265" y="377" type="line" smooth="no"/>
      <point x="218" y="375"/>
      <point x="132" y="376"/>
      <point x="85" y="375" type="qcurve" smooth="no"/>
      <point x="90" y="483" type="line" smooth="no"/>
      <point x="92" y="483" type="line" smooth="no"/>
      <point x="92" y="496"/>
      <point x="94" y="523"/>
      <point x="96" y="535" type="qcurve" smooth="no"/>
      <point x="143" y="542"/>
      <point x="230" y="539"/>
    </contour>
    <contour>
      <point x="236" y="168" type="qcurve" smooth="no"/>
      <point x="233" y="132"/>
      <point x="226" y="64" type="line" smooth="yes"/>
      <point x="222" y="0" type="line" smooth="no"/>
      <point x="175" y="-2"/>
      <point x="89" y="-1"/>
      <point x="42" y="-2" type="qcurve" smooth="no"/>
      <point x="46" y="106" type="line" smooth="no"/>
      <point x="49" y="106" type="line" smooth="no"/>
      <point x="49" y="119"/>
      <point x="51" y="145"/>
      <point x="53" y="158" type="qcurve" smooth="no"/>
      <point x="100" y="165"/>
      <point x="187" y="162"/>
    </contour>
  </outline>
</glyph>
<glyph name="less" format="1">
  <advance width="738"/>
  <unicode hex="003c"/>
  <outline>
    <contour>
      <point x="129" y="230" type="line" smooth="no"/>
      <point x="129" y="367" type="line" smooth="no"/>
      <point x="704" y="605" type="line" smooth="no"/>
      <point x="704" y="458" type="line" smooth="no"/>
      <point x="313" y="298" type="line" smooth="no"/>
      <point x="704" y="138" type="line" smooth="no"/>
      <point x="704" y="-8" type="line" smooth="no"/>
    </contour>
  </outline>
</glyph>
<glyph name="question" format="1">
  <advance width="535"/>
  <unicode hex="003f"/>
  <outline>
    <contour>
      <point x="497" y="540" type="qcurve" smooth="no"/>
      <point x="497" y="519"/>
      <point x="480" y="471"/>
      <point x="451" y="423"/>
      <point x="414" y="380"/>
      <point x="395" y="364" type="qcurve" smooth="no"/>
      <point x="369" y="346"/>
      <point x="336" y="325"/>
      <point x="315" y="306"/>
      <point x="302" y="280"/>
      <point x="296" y="258" type="qcurve" smooth="no"/>
      <point x="296" y="244" type="line" smooth="yes"/>
      <point x="296" y="232"/>
      <point x="294" y="222" type="qcurve" smooth="no"/>
      <point x="295" y="222"/>
      <point x="289" y="221"/>
      <point x="277" y="221"/>
      <point x="278" y="221" type="qcurve" smooth="yes"/>
      <point x="141" y="216" type="line" smooth="no"/>
      <point x="141" y="227"/>
      <point x="137" y="226"/>
      <point x="135" y="227"/>
      <point x="136" y="240"/>
      <point x="140" y="264" type="qcurve" smooth="yes"/>
      <point x="140" y="268"/>
      <point x="149" y="283"/>
      <point x="145" y="286" type="qcurve" smooth="no"/>
      <point x="153" y="322"/>
      <point x="221" y="394"/>
      <point x="279" y="434" type="qcurve" smooth="yes"/>
      <point x="291" y="443"/>
      <point x="305" y="463"/>
      <point x="313" y="485"/>
      <point x="315" y="507"/>
      <point x="317" y="518" type="qcurve" smooth="no"/>
      <point x="314" y="520"/>
      <point x="312" y="541"/>
      <point x="309" y="551"/>
      <point x="304" y="553" type="qcurve" smooth="yes"/>
      <point x="293" y="556"/>
      <point x="266" y="554"/>
      <point x="252" y="546" type="qcurve" smooth="no"/>
      <point x="231" y="528"/>
      <point x="225" y="490"/>
      <point x="221" y="472" type="qcurve" smooth="no"/>
      <point x="81" y="472" type="line" smooth="no"/>
      <point x="74" y="476" type="line" smooth="no"/>
      <point x="82" y="500"/>
      <point x="89" y="549"/>
      <point x="101" y="596"/>
      <point x="125" y="641"/>
      <point x="149" y="661" type="qcurve" smooth="no"/>
      <point x="185" y="685"/>
      <point x="261" y="711"/>
      <point x="333" y="719"/>
      <point x="399" y="711"/>
      <point x="426" y="702" type="qcurve" smooth="yes"/>
      <point x="475" y="685"/>
      <point x="503" y="607"/>
    </contour>
    <contour>
      <point x="314" y="163" type="qcurve" smooth="no"/>
      <point x="311" y="127"/>
      <point x="304" y="57" type="line" smooth="yes"/>
      <point x="300" y="-8" type="line" smooth="no"/>
      <point x="252" y="-10"/>
      <point x="164" y="-9"/>
      <point x="116" y="-10" type="qcurve" smooth="no"/>
      <point x="121" y="100" type="line" smooth="no"/>
      <point x="123" y="100" type="line" smooth="no"/>
      <point x="123" y="113"/>
      <point x="125" y="140"/>
      <point x="128" y="153" type="qcurve" smooth="no"/>
      <point x="175" y="160"/>
      <point x="264" y="157"/>
    </contour>
  </outline>
</glyph>
<glyph name="at" format="1">
  <advance width="932"/>
  <unicode hex="0040"/>
  <outline>
    <contour>
      <point x="888" y="405" type="qcurve" smooth="yes"/>
      <point x="883" y="370"/>
      <point x="862" y="277"/>
      <point x="837" y="188"/>
      <point x="814" y="120"/>
      <point x="807" y="111" type="qcurve" smooth="yes"/>
      <point x="787" y="83"/>
      <point x="728" y="52"/>
      <point x="669" y="38"/>
      <point x="621" y="37"/>
      <point x="612" y="39" type="qcurve" smooth="yes"/>
      <point x="592" y="43"/>
      <point x="551" y="61"/>
      <point x="548" y="72" type="qcurve" smooth="no"/>
      <point x="537" y="157" type="line" smooth="no"/>
      <point x="505" y="155"/>
      <point x="442" y="161"/>
      <point x="414" y="160" type="qcurve" smooth="no"/>
      <point x="400" y="138"/>
      <point x="367" y="70" type="line" smooth="no"/>
      <point x="326" y="68"/>
      <point x="242" y="71"/>
      <point x="200" y="69" type="qcurve" smooth="no"/>
      <point x="347" y="357"/>
      <point x="403" y="455" type="qcurve" smooth="no"/>
      <point x="401" y="456" type="line" smooth="no"/>
      <point x="421" y="490"/>
      <point x="454" y="559"/>
      <point x="474" y="591" type="qcurve" smooth="no"/>
      <point x="472" y="592" type="line" smooth="no"/>
      <point x="514" y="594"/>
      <point x="593" y="591"/>
      <point x="638" y="593" type="qcurve" smooth="no"/>
      <point x="651" y="497"/>
      <point x="668" y="318"/>
      <point x="679" y="222" type="qcurve" smooth="no"/>
      <point x="687" y="160" type="line" smooth="no"/>
      <point x="697" y="165"/>
      <point x="722" y="188"/>
      <point x="743" y="232"/>
      <point x="758" y="301"/>
      <point x="758" y="353" type="qcurve" smooth="yes"/>
      <point x="758" y="382"/>
      <point x="764" y="445"/>
      <point x="768" y="505"/>
      <point x="766" y="558"/>
      <point x="760" y="577" type="qcurve" smooth="yes"/>
      <point x="754" y="596"/>
      <point x="720" y="636"/>
      <point x="666" y="669"/>
      <point x="594" y="688"/>
      <point x="549" y="685" type="qcurve" smooth="yes"/>
      <point x="504" y="682"/>
      <point x="429" y="676"/>
      <point x="365" y="657"/>
      <point x="312" y="616"/>
      <point x="290" y="579" type="qcurve" smooth="yes"/>
      <point x="274" y="552"/>
      <point x="236" y="468"/>
      <point x="200" y="370"/>
      <point x="167" y="265"/>
      <point x="146" y="167"/>
      <point x="138" y="85"/>
      <point x="145" y="60" type="qcurve" smooth="yes"/>
      <point x="155" y="22"/>
      <point x="215" y="-24"/>
      <point x="287" y="-48"/>
      <point x="358" y="-55"/>
      <point x="380" y="-54" type="qcurve" smooth="yes"/>
      <point x="397" y="-53"/>
      <point x="414" y="-51"/>
      <point x="418" y="-49" type="qcurve" smooth="no"/>
      <point x="418" y="-43" type="line" smooth="no"/>
      <point x="420" y="-44"/>
      <point x="421" y="-45" type="qcurve" smooth="yes"/>
      <point x="424" y="-48"/>
      <point x="418" y="-49" type="qcurve" smooth="no"/>
      <point x="420" y="-153" type="line" smooth="no"/>
      <point x="376" y="-158" type="line" smooth="no"/>
      <point x="277" y="-166" type="line" smooth="no"/>
      <point x="246" y="-163"/>
      <point x="215" y="-156" type="qcurve" smooth="yes"/>
      <point x="189" y="-151"/>
      <point x="129" y="-131"/>
      <point x="105" y="-115" type="qcurve" smooth="yes"/>
      <point x="82" y="-100"/>
      <point x="54" y="-57"/>
      <point x="39" y="-7"/>
      <point x="33" y="48"/>
      <point x="32" y="76" type="qcurve" smooth="yes"/>
      <point x="30" y="115"/>
      <point x="41" y="205"/>
      <point x="59" y="295"/>
      <point x="83" y="381"/>
      <point x="106" y="453"/>
      <point x="126" y="507"/>
      <point x="132" y="520" type="qcurve" smooth="yes"/>
      <point x="172" y="601"/>
      <point x="210" y="663"/>
      <point x="252" y="714"/>
      <point x="272" y="724" type="qcurve" smooth="yes"/>
      <point x="292" y="734"/>
      <point x="321" y="752"/>
      <point x="360" y="767"/>
      <point x="420" y="776"/>
      <point x="470" y="778" type="qcurve" smooth="no"/>
      <point x="521" y="779"/>
      <point x="622" y="774"/>
      <point x="713" y="757"/>
      <point x="789" y="724"/>
      <point x="813" y="699" type="qcurve" smooth="yes"/>
      <point x="837" y="673"/>
      <point x="870" y="601"/>
      <point x="888" y="521"/>
      <point x="892" y="439"/>
    </contour>
    <contour>
      <point x="541" y="592" type="line" smooth="no"/>
      <point x="540" y="591" type="line" smooth="no"/>
      <point x="541" y="589" type="line" smooth="no"/>
    </contour>
    <contour>
      <point x="489" y="591" type="line" smooth="no"/>
      <point x="487" y="591" type="line" smooth="no"/>
      <point x="487" y="588" type="line" smooth="no"/>
      <point x="489" y="588" type="line" smooth="no"/>
    </contour>
    <contour>
      <point x="506" y="360" type="line" smooth="yes"/>
      <point x="506" y="359"/>
      <point x="504" y="357" type="qcurve" smooth="yes"/>
    </contour>
    <contour>
      <point x="407" y="458" type="line" smooth="no"/>
      <point x="405" y="458" type="line" smooth="no"/>
      <point x="405" y="455" type="line" smooth="no"/>
      <point x="407" y="455" type="line" smooth="no"/>
    </contour>
    <contour>
      <point x="525" y="265" type="qcurve" smooth="no"/>
      <point x="521" y="288"/>
      <point x="520" y="332"/>
      <point x="514" y="353" type="qcurve" smooth="no"/>
      <point x="512" y="354"/>
      <point x="512" y="355" type="qcurve" smooth="yes"/>
      <point x="475" y="272" type="line" smooth="no"/>
      <point x="475" y="266" type="line" smooth="no"/>
      <point x="489" y="264"/>
      <point x="511" y="265"/>
    </contour>
    <contour>
      <point x="565" y="115" type="line" smooth="no"/>
      <point x="563" y="115" type="line" smooth="no"/>
      <point x="564" y="112" type="line" smooth="no"/>
      <point x="565" y="113" type="line" smooth="no"/>
    </contour>
    <contour>
      <point x="352" y="161" type="line" smooth="no"/>
      <point x="351" y="161" type="line" smooth="no"/>
      <point x="351" y="158" type="line" smooth="no"/>
      <point x="353" y="158" type="line" smooth="no"/>
    </contour>
  </outline>
</glyph>
<glyph name="C" format="1">
  <advance width="609"/>
  <unicode hex="0043"/>
  <outline>
    <contour>
      <point x="580" y="617" type="qcurve" smooth="yes"/>
      <point x="588" y="597"/>
      <point x="590" y="557"/>
      <point x="585" y="517"/>
      <point x="576" y="477"/>
      <point x="574" y="457" type="qcurve" smooth="no"/>
      <point x="571" y="453" type="line" smooth="no"/>
      <point x="528" y="451"/>
      <point x="451" y="449"/>
      <point x="408" y="448" type="qcurve" smooth="no"/>
      <point x="409" y="459"/>
      <point x="409" y="483"/>
      <point x="405" y="504"/>
      <point x="394" y="521"/>
      <point x="383" y="527" type="qcurve" smooth="no"/>
      <point x="351" y="527"/>
      <point x="334" y="499" type="qcurve" smooth="no"/>
      <point x="336" y="498" type="line" smooth="no"/>
      <point x="331" y="495"/>
      <point x="331" y="483"/>
      <point x="330" y="478" type="qcurve" smooth="yes"/>
      <point x="323" y="456"/>
      <point x="314" y="402"/>
      <point x="312" y="380" type="qcurve" smooth="no"/>
      <point x="309" y="380" type="line" smooth="no"/>
      <point x="309" y="363"/>
      <point x="292" y="290"/>
      <point x="287" y="250"/>
      <point x="291" y="230" type="qcurve" smooth="no"/>
      <point x="297" y="217"/>
      <point x="323" y="212"/>
      <point x="336" y="215" type="qcurve" smooth="no"/>
      <point x="351" y="222"/>
      <point x="366" y="244"/>
      <point x="375" y="271"/>
      <point x="380" y="300"/>
      <point x="384" y="313" type="qcurve" smooth="no"/>
      <point x="426" y="318"/>
      <point x="512" y="323"/>
      <point x="554" y="324" type="qcurve" smooth="no"/>
      <point x="548" y="283"/>
      <point x="530" y="199"/>
      <point x="496" y="121"/>
      <point x="440" y="57"/>
      <point x="397" y="38" type="qcurve" smooth="yes"/>
      <point x="371" y="27"/>
      <point x="311" y="16"/>
      <point x="250" y="18"/>
      <point x="190" y="34"/>
      <point x="166" y="49" type="qcurve" smooth="no"/>
      <point x="133" y="68"/>
      <point x="107" y="126"/>
      <point x="104" y="191"/>
      <point x="115" y="260"/>
      <point x="121" y="290" type="qcurve" smooth="yes"/>
      <point x="133" y="358"/>
      <point x="164" y="490"/>
      <point x="178" y="560" type="qcurve" smooth="no"/>
      <point x="188" y="591"/>
      <point x="228" y="643"/>
      <point x="281" y="682"/>
      <point x="343" y="707"/>
      <point x="375" y="711" type="qcurve" smooth="yes"/>
      <point x="392" y="713"/>
      <point x="426" y="716"/>
      <point x="443" y="714" type="qcurve" smooth="no"/>
      <point x="448" y="708" type="line" smooth="no"/>
      <point x="452" y="714" type="line" smooth="no"/>
      <point x="494" y="710"/>
      <point x="564" y="657"/>
    </contour>
    <contour>
      <point x="279" y="463" type="line" smooth="no"/>
      <point x="279" y="461" type="line" smooth="no"/>
      <point x="285" y="463" type="line" smooth="no"/>
    </contour>
  </outline>
</glyph>
<glyph name="G" format="1">
  <advance width="516"/>
  <unicode hex="0047"/>
  <outline>
    <contour>
      <point x="487" y="623" type="line" smooth="no"/>
      <point x="485" y="624" type="line" smooth="no"/>
      <point x="487" y="628" type="line" smooth="no"/>
      <point x="489" y="627" type="line" smooth="no"/>
    </contour>
    <contour>
      <point x="497" y="591" type="qcurve" smooth="no"/>
      <point x="495" y="562"/>
      <point x="499" y="503"/>
      <point x="493" y="474" type="qcurve" smooth="no"/>
      <point x="452" y="472"/>
      <point x="372" y="467"/>
      <point x="332" y="468" type="qcurve" smooth="no"/>
      <point x="335" y="487"/>
      <point x="330" y="530"/>
      <point x="311" y="541" type="qcurve" smooth="no"/>
      <point x="301" y="544"/>
      <point x="278" y="545"/>
      <point x="269" y="537" type="qcurve" smooth="no"/>
      <point x="255" y="519"/>
      <point x="244" y="478"/>
      <point x="241" y="436"/>
      <point x="242" y="392"/>
      <point x="239" y="371" type="qcurve" smooth="no"/>
      <point x="236" y="288" type="line" smooth="no"/>
      <point x="234" y="289"/>
      <point x="230" y="292"/>
      <point x="227" y="290" type="qcurve" smooth="no"/>
      <point x="234" y="281"/>
      <point x="233" y="256"/>
      <point x="233" y="232"/>
      <point x="243" y="212"/>
      <point x="260" y="209" type="qcurve" smooth="no"/>
      <point x="268" y="209"/>
      <point x="281" y="214"/>
      <point x="288" y="216" type="qcurve" smooth="no"/>
      <point x="287" y="214"/>
      <point x="289" y="212" type="qcurve" smooth="no"/>
      <point x="304" y="226"/>
      <point x="329" y="266"/>
      <point x="324" y="288" type="qcurve" smooth="no"/>
      <point x="315" y="293"/>
      <point x="290" y="289"/>
      <point x="279" y="292" type="qcurve" smooth="no"/>
      <point x="299" y="384" type="line" smooth="no"/>
      <point x="334" y="389"/>
      <point x="401" y="394"/>
      <point x="435" y="399" type="qcurve" smooth="no"/>
      <point x="436" y="395" type="line" smooth="no"/>
      <point x="448" y="400"/>
      <point x="475" y="399"/>
      <point x="489" y="403" type="qcurve" smooth="no"/>
      <point x="481" y="367"/>
      <point x="479" y="293"/>
      <point x="473" y="219"/>
      <point x="453" y="147"/>
      <point x="425" y="113" type="qcurve" smooth="no"/>
      <point x="407" y="84"/>
      <point x="353" y="42"/>
      <point x="289" y="15"/>
      <point x="220" y="6"/>
      <point x="187" y="11" type="qcurve" smooth="yes"/>
      <point x="168" y="14"/>
      <point x="129" y="29"/>
      <point x="95" y="52"/>
      <point x="69" y="83"/>
      <point x="62" y="103" type="qcurve" smooth="no"/>
      <point x="54" y="121"/>
      <point x="53" y="156"/>
      <point x="49" y="174" type="qcurve" smooth="no"/>
      <point x="74" y="519" type="line" smooth="no"/>
      <point x="93" y="596"/>
      <point x="201" y="703"/>
      <point x="276" y="723" type="qcurve" smooth="no"/>
      <point x="301" y="726"/>
      <point x="357" y="726"/>
      <point x="410" y="712"/>
      <point x="455" y="683"/>
      <point x="470" y="657" type="qcurve" smooth="no"/>
      <point x="481" y="641"/>
      <point x="492" y="608"/>
    </contour>
    <contour>
      <point x="428" y="477" type="line" smooth="no"/>
      <point x="426" y="473" type="line" smooth="no"/>
      <point x="428" y="473" type="line" smooth="no"/>
      <point x="430" y="476" type="line" smooth="no"/>
    </contour>
    <contour>
      <point x="335" y="569" type="line" smooth="no"/>
      <point x="333" y="565" type="line" smooth="no"/>
      <point x="334" y="564" type="line" smooth="no"/>
      <point x="336" y="568" type="line" smooth="no"/>
    </contour>
    <contour>
      <point x="334" y="529" type="line" smooth="no"/>
      <point x="332" y="526" type="line" smooth="no"/>
      <point x="334" y="525" type="line" smooth="no"/>
      <point x="335" y="528" type="line" smooth="no"/>
    </contour>
    <contour>
      <point x="229" y="419" type="line" smooth="no"/>
      <point x="229" y="414" type="line" smooth="no"/>
      <point x="231" y="417" type="line" smooth="no"/>
    </contour>
    <contour>
      <point x="377" y="72" type="line" smooth="no"/>
      <point x="375" y="69" type="line" smooth="no"/>
      <point x="376" y="68" type="line" smooth="no"/>
      <point x="378" y="71" type="line" smooth="no"/>
    </contour>
  </outline>
</glyph>
<glyph name="J" format="1">
  <advance width="602"/>
  <unicode hex="004a"/>
  <outline>
    <contour>
      <point x="494" y="241" type="line" smooth="yes"/>
      <point x="489" y="201"/>
      <point x="462" y="127"/>
      <point x="417" y="66"/>
      <point x="354" y="22"/>
      <point x="315" y="12" type="qcurve" smooth="yes"/>
      <point x="287" y="5"/>
      <point x="226" y="0"/>
      <point x="166" y="6"/>
      <point x="109" y="26"/>
      <point x="87" y="44" type="qcurve" smooth="no"/>
      <point x="60" y="72"/>
      <point x="40" y="135"/>
      <point x="40" y="203"/>
      <point x="61" y="311" type="line" smooth="no"/>
      <point x="219" y="351" type="line" smooth="no"/>
      <point x="217" y="337"/>
      <point x="213" y="306"/>
      <point x="206" y="294" type="qcurve" smooth="no"/>
      <point x="209" y="293" type="line" smooth="no"/>
      <point x="210" y="285"/>
      <point x="205" y="266"/>
      <point x="201" y="244"/>
      <point x="201" y="223"/>
      <point x="207" y="214" type="qcurve" smooth="no"/>
      <point x="208" y="200"/>
      <point x="231" y="192"/>
      <point x="240" y="185" type="qcurve" smooth="no"/>
      <point x="246" y="184" type="line" smooth="no"/>
      <point x="248" y="186"/>
      <point x="260" y="189"/>
      <point x="264" y="189" type="qcurve" smooth="yes"/>
      <point x="278" y="192"/>
      <point x="292" y="210"/>
      <point x="299" y="233"/>
      <point x="302" y="258"/>
      <point x="306" y="268" type="qcurve" smooth="no"/>
      <point x="330" y="473" type="line" smooth="no"/>
      <point x="333" y="475"/>
      <point x="331" y="489"/>
      <point x="331" y="494" type="qcurve" smooth="yes"/>
      <point x="337" y="549" type="line" smooth="no"/>
      <point x="310" y="551"/>
      <point x="250" y="543"/>
      <point x="222" y="542" type="qcurve" smooth="no"/>
      <point x="235" y="696" type="line" smooth="no"/>
      <point x="445" y="706" type="line" smooth="no"/>
      <point x="549" y="708" type="line" smooth="no"/>
    </contour>
    <contour>
      <point x="248" y="548" type="line" smooth="no"/>
      <point x="245" y="545" type="line" smooth="no"/>
      <point x="246" y="544" type="line" smooth="no"/>
      <point x="249" y="547" type="line" smooth="no"/>
    </contour>
    <contour>
      <point x="230" y="546" type="line" smooth="no"/>
      <point x="227" y="543" type="line" smooth="no"/>
      <point x="228" y="542" type="line" smooth="no"/>
      <point x="231" y="545" type="line" smooth="no"/>
    </contour>
    <contour>
      <point x="466" y="244" type="line" smooth="no"/>
      <point x="463" y="241" type="line" smooth="no"/>
      <point x="465" y="239" type="line" smooth="no"/>
      <point x="468" y="242" type="line" smooth="no"/>
    </contour>
    <contour>
      <point x="343" y="179" type="line" smooth="no"/>
      <point x="339" y="176" type="line" smooth="no"/>
      <point x="340" y="175" type="line" smooth="no"/>
      <point x="344" y="178" type="line" smooth="no"/>
    </contour>
    <contour>
      <point x="326" y="131" type="line" smooth="no"/>
      <point x="322" y="128" type="line" smooth="no"/>
      <point x="324" y="126" type="line" smooth="no"/>
      <point x="327" y="129" type="line" smooth="no"/>
    </contour>
    <contour>
      <point x="251" y="184" type="line" smooth="no"/>
      <point x="248" y="181" type="line" smooth="no"/>
      <point x="249" y="180" type="line" smooth="no"/>
      <point x="252" y="182" type="line" smooth="no"/>
    </contour>
  </outline>
</glyph>
<glyph name="K" format="1">
  <advance width="601"/>
  <unicode hex="004b"/>
  <outline>
    <contour>
      <point x="585" y="569" type="line" smooth="no"/>
      <point x="582" y="571" type="line" smooth="no"/>
      <point x="583" y="572" type="line" smooth="no"/>
      <point x="586" y="571" type="line" smooth="no"/>
    </contour>
    <contour>
      <point x="431" y="384" type="line" smooth="no"/>
      <point x="428" y="386" type="line" smooth="no"/>
      <point x="428" y="387" type="line" smooth="no"/>
      <point x="432" y="385" type="line" smooth="no"/>
    </contour>
    <contour>
      <point x="583" y="577" type="line" smooth="no"/>
      <point x="584" y="572"/>
      <point x="578" y="562"/>
      <point x="560" y="541"/>
      <point x="558" y="537" type="qcurve" smooth="no"/>
      <point x="556" y="536"/>
      <point x="548" y="526"/>
      <point x="544" y="523" type="qcurve" smooth="no"/>
      <point x="493" y="463"/>
      <point x="479" y="443" type="qcurve" smooth="no"/>
      <point x="474" y="441"/>
      <point x="466" y="428"/>
      <point x="460" y="424" type="qcurve" smooth="no"/>
      <point x="439" y="394"/>
      <point x="389" y="344"/>
      <point x="369" y="312" type="qcurve" smooth="no"/>
      <point x="426" y="217" type="line" smooth="no"/>
      <point x="429" y="218" type="line" smooth="no"/>
      <point x="524" y="65" type="line" smooth="no"/>
      <point x="522" y="64" type="line" smooth="no"/>
      <point x="524" y="61"/>
      <point x="527" y="57"/>
      <point x="531" y="56" type="qcurve" smooth="no"/>
      <point x="528" y="54" type="line" smooth="no"/>
      <point x="532" y="50" type="line" smooth="no"/>
      <point x="487" y="46"/>
      <point x="389" y="44"/>
      <point x="342" y="39" type="qcurve" smooth="no"/>
      <point x="339" y="41"/>
      <point x="339" y="52"/>
      <point x="337" y="56"/>
      <point x="332" y="56" type="qcurve" smooth="no"/>
      <point x="311" y="91"/>
      <point x="274" y="168"/>
      <point x="250" y="203" type="qcurve" smooth="no"/>
      <point x="247" y="203" type="line" smooth="no"/>
      <point x="249" y="201"/>
      <point x="249" y="197"/>
      <point x="251" y="197" type="qcurve" smooth="yes"/>
      <point x="239" y="195" type="line" smooth="no"/>
      <point x="235" y="197"/>
      <point x="240" y="193"/>
      <point x="241" y="195" type="qcurve" smooth="no"/>
      <point x="239" y="203" type="line" smooth="no"/>
      <point x="236" y="203"/>
      <point x="234" y="197"/>
      <point x="232" y="195" type="qcurve" smooth="no"/>
      <point x="232" y="193"/>
      <point x="237" y="191" type="qcurve" smooth="no"/>
      <point x="230" y="187"/>
      <point x="233" y="167"/>
      <point x="229" y="162" type="qcurve" smooth="no"/>
      <point x="226" y="143"/>
      <point x="219" y="111"/>
      <point x="217" y="96" type="qcurve" smooth="no"/>
      <point x="214" y="95" type="line" smooth="no"/>
      <point x="216" y="86"/>
      <point x="210" y="63"/>
      <point x="207" y="54" type="qcurve" smooth="no"/>
      <point x="209" y="49"/>
      <point x="205" y="38"/>
      <point x="204" y="33" type="qcurve" smooth="no"/>
      <point x="160" y="30"/>
      <point x="73" y="26"/>
      <point x="28" y="25" type="qcurve" smooth="no"/>
      <point x="31" y="26" type="line" smooth="no"/>
      <point x="31" y="28"/>
      <point x="26" y="30" type="qcurve" smooth="yes"/>
      <point x="24" y="31"/>
      <point x="23" y="27"/>
      <point x="22" y="26" type="qcurve" smooth="no"/>
      <point x="23" y="23" type="line" smooth="no"/>
      <point x="21" y="25"/>
      <point x="25" y="45"/>
      <point x="25" y="53" type="qcurve" smooth="no"/>
      <point x="27" y="55"/>
      <point x="34" y="58"/>
      <point x="32" y="62" type="qcurve" smooth="no"/>
      <point x="27" y="61" type="line" smooth="no"/>
      <point x="89" y="396" type="line" smooth="yes"/>
      <point x="127" y="606" type="line" smooth="yes"/>
      <point x="132" y="633"/>
      <point x="137" y="683"/>
      <point x="147" y="711" type="qcurve" smooth="no"/>
      <point x="193" y="710"/>
      <point x="284" y="713"/>
      <point x="328" y="711" type="qcurve" smooth="no"/>
      <point x="327" y="713" type="line" smooth="no"/>
      <point x="336" y="710" type="line" smooth="no"/>
      <point x="334" y="709" type="line" smooth="no"/>
      <point x="332" y="692"/>
      <point x="326" y="658"/>
      <point x="322" y="643" type="qcurve" smooth="yes"/>
      <point x="314" y="608"/>
      <point x="303" y="532"/>
      <point x="291" y="494" type="qcurve" smooth="no"/>
      <point x="292" y="486"/>
      <point x="300" y="486" type="qcurve" smooth="no"/>
      <point x="303" y="492" type="line" smooth="no"/>
      <point x="444" y="640" type="line" smooth="no"/>
      <point x="459" y="653"/>
      <point x="480" y="680"/>
      <point x="495" y="693" type="qcurve" smooth="no"/>
      <point x="513" y="668"/>
      <point x="556" y="615"/>
      <point x="571" y="588" type="qcurve" smooth="no"/>
      <point x="573" y="591"/>
      <point x="574" y="590"/>
      <point x="578" y="582"/>
      <point x="580" y="583" type="qcurve" smooth="no"/>
      <point x="578" y="581"/>
      <point x="580" y="578"/>
      <point x="581" y="576" type="qcurve" smooth="no"/>
    </contour>
    <contour>
      <point x="575" y="565" type="line" smooth="no"/>
      <point x="576" y="563" type="line" smooth="no"/>
      <point x="577" y="567" type="line" smooth="no"/>
    </contour>
    <contour>
      <point x="315" y="703" type="line" smooth="no"/>
      <point x="319" y="701" type="line" smooth="no"/>
      <point x="320" y="704" type="line" smooth="no"/>
    </contour>
    <contour>
      <point x="180" y="689" type="line" smooth="no"/>
      <point x="177" y="691" type="line" smooth="no"/>
      <point x="176" y="689" type="line" smooth="no"/>
      <point x="180" y="688" type="line" smooth="no"/>
    </contour>
    <contour>
      <point x="185" y="677" type="line" smooth="no"/>
      <point x="182" y="679" type="line" smooth="no"/>
      <point x="181" y="678" type="line" smooth="no"/>
      <point x="185" y="676" type="line" smooth="no"/>
    </contour>
    <contour>
      <point x="212" y="465" type="line" smooth="no"/>
      <point x="209" y="467" type="line" smooth="no"/>
      <point x="209" y="465" type="line" smooth="no"/>
      <point x="212" y="464" type="line" smooth="no"/>
    </contour>
    <contour>
      <point x="110" y="492" type="line" smooth="no"/>
      <point x="109" y="490" type="line" smooth="no"/>
      <point x="112" y="488" type="line" smooth="no"/>
      <point x="113" y="490" type="line" smooth="no"/>
    </contour>
    <contour>
      <point x="504" y="98" type="line" smooth="no"/>
      <point x="503" y="95" type="line" smooth="no"/>
      <point x="500" y="97" type="line" smooth="no"/>
      <point x="501" y="99" type="line" smooth="no"/>
    </contour>
    <contour>
      <point x="393" y="196" type="line" smooth="no"/>
      <point x="390" y="197" type="line" smooth="no"/>
      <point x="390" y="196" type="line" smooth="no"/>
      <point x="393" y="194" type="line" smooth="no"/>
    </contour>
    <contour>
      <point x="388" y="181" type="line" smooth="no"/>
      <point x="388" y="180" type="line" smooth="no"/>
      <point x="391" y="178" type="line" smooth="no"/>
      <point x="392" y="179" type="line" smooth="no"/>
    </contour>
    <contour>
      <point x="513" y="51" type="line" smooth="no"/>
      <point x="513" y="49" type="line" smooth="no"/>
      <point x="515" y="48" type="line" smooth="no"/>
      <point x="516" y="49" type="line" smooth="no"/>
    </contour>
    <contour>
      <point x="455" y="52" type="line" smooth="no"/>
      <point x="454" y="51" type="line" smooth="no"/>
      <point x="457" y="49" type="line" smooth="no"/>
      <point x="458" y="51" type="line" smooth="no"/>
    </contour>
    <contour>
      <point x="388" y="74" type="line" smooth="no"/>
      <point x="387" y="71" type="line" smooth="no"/>
      <point x="391" y="70" type="line" smooth="no"/>
      <point x="392" y="72" type="line" smooth="no"/>
    </contour>
    <contour>
      <point x="245" y="211" type="line" smooth="no"/>
      <point x="247" y="205" type="line" smooth="no"/>
      <point x="248" y="204" type="line" smooth="no"/>
    </contour>
    <contour>
      <point x="360" y="46" type="qcurve" smooth="no"/>
      <point x="358" y="45"/>
      <point x="352" y="50"/>
      <point x="351" y="44" type="qcurve" smooth="no"/>
      <point x="355" y="42" type="line" smooth="no"/>
      <point x="356" y="43"/>
      <point x="360" y="43"/>
    </contour>
    <contour>
      <point x="223" y="167" type="line" smooth="no"/>
      <point x="222" y="166" type="line" smooth="no"/>
      <point x="225" y="164" type="line" smooth="no"/>
      <point x="226" y="165" type="line" smooth="no"/>
    </contour>
    <contour>
      <point x="33" y="69" type="line" smooth="no"/>
      <point x="32" y="67" type="line" smooth="no"/>
      <point x="36" y="65" type="line" smooth="no"/>
      <point x="37" y="67" type="line" smooth="no"/>
    </contour>
  </outline>
</glyph>
<glyph name="L" format="1">
  <advance width="488"/>
  <unicode hex="004c"/>
  <outline>
    <contour>
      <point x="443" y="215" type="qcurve" smooth="no"/>
      <point x="436" y="167"/>
      <point x="415" y="77"/>
      <point x="406" y="30" type="qcurve" smooth="no"/>
      <point x="312" y="28"/>
      <point x="137" y="22"/>
      <point x="44" y="20" type="qcurve" smooth="no"/>
      <point x="54" y="82" type="line" smooth="no"/>
      <point x="91" y="286" type="line" smooth="yes"/>
      <point x="116" y="427" type="line" smooth="no"/>
      <point x="118" y="427" type="line" smooth="no"/>
      <point x="129" y="497"/>
      <point x="172" y="723" type="line" smooth="no"/>
      <point x="188" y="722"/>
      <point x="219" y="726"/>
      <point x="233" y="721" type="qcurve" smooth="no"/>
      <point x="238" y="725"/>
      <point x="256" y="727"/>
      <point x="264" y="725" type="qcurve" smooth="no"/>
      <point x="294" y="725"/>
      <point x="349" y="727"/>
      <point x="375" y="725" type="qcurve" smooth="no"/>
      <point x="286" y="213" type="line" smooth="no"/>
      <point x="290" y="209" type="line" smooth="no"/>
      <point x="325" y="211"/>
      <point x="405" y="211"/>
    </contour>
    <contour>
      <point x="249" y="399" type="line" smooth="no"/>
      <point x="247" y="400" type="line" smooth="no"/>
      <point x="247" y="395" type="line" smooth="no"/>
      <point x="249" y="395" type="line" smooth="no"/>
    </contour>
    <contour>
      <point x="132" y="365" type="line" smooth="no"/>
      <point x="132" y="361" type="line" smooth="no"/>
      <point x="133" y="361" type="line" smooth="no"/>
      <point x="134" y="365" type="line" smooth="no"/>
    </contour>
    <contour>
      <point x="82" y="135" type="line" smooth="no"/>
      <point x="82" y="131" type="line" smooth="no"/>
      <point x="83" y="131" type="line" smooth="no"/>
      <point x="84" y="135" type="line" smooth="no"/>
    </contour>
  </outline>
</glyph>
<glyph name="P" format="1">
  <advance width="591"/>
  <unicode hex="0050"/>
  <outline>
    <contour>
      <point x="570" y="578" type="qcurve" smooth="yes"/>
      <point x="576" y="539"/>
      <point x="561" y="467"/>
      <point x="525" y="403"/>
      <point x="472" y="350"/>
      <point x="440" y="331" type="qcurve" smooth="yes"/>
      <point x="398" y="306"/>
      <point x="307" y="272"/>
      <point x="259" y="256" type="qcurve" smooth="no"/>
      <point x="247" y="201"/>
      <point x="216" y="33" type="line" smooth="no"/>
      <point x="36" y="33" type="line" smooth="no"/>
      <point x="41" y="61"/>
      <point x="54" y="121"/>
      <point x="62" y="148" type="qcurve" smooth="no"/>
      <point x="64" y="174" type="line" smooth="no"/>
      <point x="116" y="408" type="line" smooth="yes"/>
      <point x="131" y="474"/>
      <point x="156" y="605"/>
      <point x="172" y="666" type="qcurve" smooth="no"/>
      <point x="173" y="679"/>
      <point x="181" y="709"/>
      <point x="184" y="715" type="qcurve" smooth="no"/>
      <point x="182" y="719" type="line" smooth="no"/>
      <point x="430" y="712" type="line" smooth="no"/>
      <point x="455" y="708"/>
      <point x="502" y="684"/>
      <point x="540" y="648"/>
      <point x="566" y="603"/>
    </contour>
    <contour>
      <point x="294" y="559" type="line" smooth="no"/>
      <point x="293" y="558" type="line" smooth="no"/>
      <point x="296" y="556" type="line" smooth="no"/>
      <point x="298" y="557" type="line" smooth="no"/>
    </contour>
    <contour>
      <point x="412" y="521" type="qcurve" smooth="no"/>
      <point x="408" y="529"/>
      <point x="396" y="544"/>
      <point x="387" y="548" type="qcurve" smooth="no"/>
      <point x="375" y="557"/>
      <point x="340" y="556"/>
      <point x="329" y="550" type="qcurve" smooth="no"/>
      <point x="301" y="441"/>
      <point x="294" y="403" type="qcurve" smooth="no"/>
      <point x="313" y="410"/>
      <point x="353" y="431"/>
      <point x="388" y="460"/>
      <point x="411" y="498"/>
    </contour>
    <contour>
      <point x="158" y="600" type="line" smooth="no"/>
      <point x="156" y="598" type="line" smooth="no"/>
      <point x="159" y="595" type="line" smooth="no"/>
      <point x="161" y="597" type="line" smooth="no"/>
    </contour>
  </outline>
</glyph>
<glyph name="Q" format="1">
  <advance width="611"/>
  <unicode hex="0051"/>
  <outline>
    <contour>
      <point x="612" y="77" type="qcurve" smooth="no"/>
      <point x="483" y="52"/>
      <point x="439" y="40" type="qcurve" smooth="no"/>
      <point x="430" y="56"/>
      <point x="405" y="78"/>
      <point x="394" y="93" type="qcurve" smooth="no"/>
      <point x="369" y="70"/>
      <point x="308" y="37"/>
      <point x="243" y="23"/>
      <point x="175" y="29"/>
      <point x="144" y="45" type="qcurve" smooth="yes"/>
      <point x="106" y="64"/>
      <point x="61" y="135"/>
      <point x="57" y="177" type="qcurve" smooth="no"/>
      <point x="91" y="431" type="line" smooth="no"/>
      <point x="92" y="466"/>
      <point x="105" y="546"/>
      <point x="135" y="621"/>
      <point x="184" y="681"/>
      <point x="222" y="695" type="qcurve" smooth="no"/>
      <point x="229" y="696" type="line" smooth="no"/>
      <point x="228" y="699" type="line" smooth="no"/>
      <point x="280" y="730"/>
      <point x="395" y="720"/>
      <point x="449" y="688" type="qcurve" smooth="yes"/>
      <point x="475" y="672"/>
      <point x="506" y="612"/>
      <point x="510" y="581" type="qcurve" smooth="yes"/>
      <point x="521" y="489"/>
      <point x="490" y="210" type="line" smooth="no"/>
      <point x="464" y="215"/>
      <point x="409" y="230"/>
      <point x="380" y="232" type="qcurve" smooth="no"/>
      <point x="408" y="227"/>
      <point x="496" y="199" type="line" smooth="no"/>
      <point x="586" y="111"/>
    </contour>
    <contour>
      <point x="279" y="664" type="line" smooth="no"/>
      <point x="278" y="661" type="line" smooth="no"/>
      <point x="279" y="660" type="line" smooth="no"/>
      <point x="280" y="663" type="line" smooth="no"/>
    </contour>
    <contour>
      <point x="228" y="565" type="line" smooth="no"/>
      <point x="227" y="561" type="line" smooth="no"/>
      <point x="229" y="560" type="line" smooth="no"/>
      <point x="231" y="564" type="line" smooth="no"/>
    </contour>
    <contour>
      <point x="408" y="314" type="line" smooth="no"/>
      <point x="407" y="311" type="line" smooth="no"/>
      <point x="408" y="310" type="line" smooth="no"/>
      <point x="410" y="314" type="line" smooth="no"/>
    </contour>
    <contour>
      <point x="369" y="232" type="qcurve" smooth="no"/>
      <point x="361" y="234"/>
      <point x="340" y="235"/>
      <point x="338" y="244" type="qcurve" smooth="no"/>
      <point x="343" y="313"/>
      <point x="358" y="445"/>
      <point x="356" y="514" type="qcurve" smooth="no"/>
      <point x="353" y="528"/>
      <point x="325" y="542"/>
      <point x="314" y="541" type="qcurve" smooth="no"/>
      <point x="316" y="538" type="line" smooth="no"/>
      <point x="300" y="537"/>
      <point x="282" y="491" type="line" smooth="no"/>
      <point x="274" y="428"/>
      <point x="262" y="301"/>
      <point x="257" y="237" type="qcurve" smooth="no"/>
      <point x="259" y="233" type="line" smooth="no"/>
      <point x="302" y="236" type="line" smooth="no"/>
      <point x="307" y="234"/>
      <point x="317" y="237"/>
      <point x="320" y="235" type="qcurve" smooth="no"/>
      <point x="333" y="237"/>
      <point x="360" y="234"/>
    </contour>
    <contour>
      <point x="380" y="237" type="line" smooth="no"/>
      <point x="378" y="233" type="line" smooth="no"/>
      <point x="380" y="232" type="line" smooth="no"/>
      <point x="381" y="236" type="line" smooth="no"/>
    </contour>
  </outline>
</glyph>
<glyph name="W" format="1">
  <advance width="784"/>
  <unicode hex="0057"/>
  <outline>
    <contour>
      <point x="759" y="541" type="line" smooth="no"/>
      <point x="504" y="13" type="line" smooth="no"/>
      <point x="505" y="-4"/>
      <point x="491" y="-15"/>
      <point x="470" y="-15"/>
      <point x="447" y="-12"/>
      <point x="439" y="-15" type="qcurve" smooth="no"/>
      <point x="422" y="-17"/>
      <point x="380" y="-18"/>
      <point x="360" y="-19" type="qcurve" smooth="no"/>
      <point x="357" y="19"/>
      <point x="356" y="95"/>
      <point x="348" y="132" type="qcurve" smooth="no"/>
      <point x="339" y="126"/>
      <point x="331" y="100"/>
      <point x="323" y="91" type="qcurve" smooth="no"/>
      <point x="254" y="-26" type="line" smooth="no"/>
      <point x="216" y="-29"/>
      <point x="144" y="-34"/>
      <point x="107" y="-35" type="qcurve" smooth="no"/>
      <point x="98" y="43"/>
      <point x="88" y="198"/>
      <point x="82" y="276" type="qcurve" smooth="yes"/>
      <point x="61" y="541" type="line" smooth="yes"/>
      <point x="58" y="575"/>
      <point x="53" y="643"/>
      <point x="47" y="676" type="qcurve" smooth="no"/>
      <point x="52" y="680" type="line" smooth="no"/>
      <point x="242" y="685" type="line" smooth="no"/>
      <point x="244" y="628"/>
      <point x="253" y="515"/>
      <point x="261" y="461" type="qcurve" smooth="no"/>
      <point x="290" y="509"/>
      <point x="359" y="646" type="line" smooth="yes"/>
      <point x="362" y="650"/>
      <point x="369" y="667"/>
      <point x="373" y="674" type="qcurve" smooth="yes"/>
      <point x="375" y="678"/>
      <point x="383" y="692" type="line" smooth="no"/>
      <point x="417" y="694"/>
      <point x="481" y="695"/>
      <point x="513" y="698" type="qcurve" smooth="no"/>
      <point x="521" y="483" type="line" smooth="no"/>
      <point x="523" y="480" type="line" smooth="no"/>
      <point x="611" y="644"/>
      <point x="639" y="703" type="qcurve" smooth="no"/>
      <point x="690" y="703"/>
      <point x="789" y="710"/>
      <point x="840" y="712" type="qcurve" smooth="no"/>
    </contour>
    <contour>
      <point x="752" y="547" type="line" smooth="no"/>
      <point x="750" y="543" type="line" smooth="no"/>
    </contour>
    <contour>
      <point x="712" y="493" type="line" smooth="no"/>
      <point x="711" y="493" type="line" smooth="no"/>
      <point x="710" y="489" type="line" smooth="no"/>
      <point x="712" y="489" type="line" smooth="no"/>
    </contour>
    <contour>
      <point x="420" y="691" type="line" smooth="no"/>
      <point x="418" y="691" type="line" smooth="no"/>
      <point x="419" y="695" type="line" smooth="no"/>
      <point x="420" y="695" type="line" smooth="no"/>
    </contour>
    <contour>
      <point x="401" y="453" type="line" smooth="no"/>
      <point x="400" y="450" type="line" smooth="no"/>
      <point x="402" y="449" type="line" smooth="no"/>
      <point x="403" y="453" type="line" smooth="no"/>
    </contour>
    <contour>
      <point x="199" y="647" type="line" smooth="no"/>
      <point x="197" y="648" type="line" smooth="no"/>
      <point x="196" y="644" type="line" smooth="no"/>
      <point x="199" y="643" type="line" smooth="no"/>
    </contour>
    <contour>
      <point x="426" y="233" type="line" smooth="no"/>
      <point x="425" y="234" type="line" smooth="no"/>
      <point x="424" y="230" type="line" smooth="no"/>
      <point x="426" y="229" type="line" smooth="no"/>
    </contour>
    <contour>
      <point x="350" y="273" type="line" smooth="no"/>
      <point x="350" y="270" type="line" smooth="no"/>
      <point x="351" y="269" type="line" smooth="no"/>
      <point x="352" y="273" type="line" smooth="no"/>
    </contour>
    <contour>
      <point x="495" y="62" type="line" smooth="no"/>
      <point x="494" y="58" type="line" smooth="no"/>
      <point x="496" y="57" type="line" smooth="no"/>
      <point x="497" y="61" type="line" smooth="no"/>
    </contour>
    <contour>
      <point x="349" y="148" type="line" smooth="no"/>
      <point x="349" y="144" type="line" smooth="no"/>
      <point x="350" y="143" type="line" smooth="no"/>
      <point x="351" y="147" type="line" smooth="no"/>
    </contour>
  </outline>
</glyph>
<glyph name="X" format="1">
  <advance width="727"/>
  <unicode hex="0058"/>
  <outline>
    <contour>
      <point x="151" y="692" type="line" smooth="no"/>
      <point x="148" y="695" type="line" smooth="no"/>
      <point x="150" y="696" type="line" smooth="no"/>
      <point x="153" y="694" type="line" smooth="no"/>
    </contour>
    <contour>
      <point x="751" y="730" type="qcurve" smooth="no"/>
      <point x="525" y="414" type="line" smooth="yes"/>
      <point x="479" y="350"/>
      <point x="462" y="329" type="qcurve" smooth="no"/>
      <point x="478" y="267" type="line" smooth="no"/>
      <point x="560" y="6" type="line" smooth="no"/>
      <point x="560" y="3" type="line" smooth="no"/>
      <point x="541" y="4" type="line" smooth="no"/>
      <point x="542" y="1" type="line" smooth="no"/>
      <point x="372" y="-12" type="line" smooth="no"/>
      <point x="358" y="19"/>
      <point x="340" y="83"/>
      <point x="326" y="114" type="qcurve" smooth="no"/>
      <point x="302" y="83"/>
      <point x="243" y="-21" type="line" smooth="no"/>
      <point x="19" y="-35" type="line" smooth="no"/>
      <point x="19" y="-30" type="line" smooth="no"/>
      <point x="17" y="-29"/>
      <point x="13" y="-33" type="qcurve" smooth="no"/>
      <point x="42" y="17"/>
      <point x="116" y="116"/>
      <point x="146" y="165" type="qcurve" smooth="yes"/>
      <point x="264" y="341" type="line" smooth="no"/>
      <point x="247" y="399"/>
      <point x="209" y="503"/>
      <point x="191" y="562" type="qcurve" smooth="yes"/>
      <point x="164" y="644"/>
      <point x="155" y="668" type="qcurve" smooth="no"/>
      <point x="158" y="667" type="line" smooth="no"/>
      <point x="159" y="671"/>
      <point x="155" y="673" type="qcurve" smooth="no"/>
      <point x="158" y="673" type="line" smooth="no"/>
      <point x="157" y="678"/>
      <point x="151" y="680"/>
      <point x="153" y="685" type="qcurve" smooth="no"/>
      <point x="150" y="685" type="line" smooth="no"/>
      <point x="150" y="693" type="line" smooth="no"/>
      <point x="153" y="694" type="line" smooth="no"/>
      <point x="152" y="699" type="line" smooth="no"/>
      <point x="150" y="699" type="line" smooth="no"/>
      <point x="171" y="699" type="line" smooth="no"/>
      <point x="171" y="701" type="line" smooth="no"/>
      <point x="185" y="702" type="line" smooth="no"/>
      <point x="185" y="699" type="line" smooth="no"/>
      <point x="226" y="703"/>
      <point x="296" y="708"/>
      <point x="335" y="709" type="qcurve" smooth="no"/>
      <point x="348" y="665"/>
      <point x="393" y="541" type="line" smooth="no"/>
      <point x="425" y="580"/>
      <point x="480" y="665"/>
      <point x="514" y="701" type="qcurve" smooth="no"/>
      <point x="512" y="706"/>
      <point x="523" y="713"/>
      <point x="524" y="719" type="qcurve" smooth="no"/>
      <point x="562" y="720" type="line" smooth="no"/>
      <point x="562" y="717" type="line" smooth="no"/>
      <point x="609" y="725"/>
      <point x="706" y="725"/>
    </contour>
    <contour>
      <point x="156" y="683" type="line" smooth="no"/>
      <point x="155" y="681" type="line" smooth="no"/>
      <point x="152" y="684" type="line" smooth="no"/>
      <point x="153" y="685" type="line" smooth="no"/>
    </contour>
    <contour>
      <point x="440" y="117" type="line" smooth="no"/>
      <point x="441" y="114" type="line" smooth="no"/>
      <point x="443" y="116" type="line" smooth="no"/>
    </contour>
    <contour>
      <point x="410" y="49" type="line" smooth="no"/>
      <point x="408" y="47" type="line" smooth="no"/>
      <point x="411" y="44" type="line" smooth="no"/>
      <point x="413" y="46" type="line" smooth="no"/>
    </contour>
  </outline>
</glyph>
<glyph name="Z" format="1">
  <advance width="625"/>
  <unicode hex="005a"/>
  <outline>
    <contour>
      <point x="585" y="731" type="line" smooth="no"/>
      <point x="539" y="530" type="line" smooth="no"/>
      <point x="298" y="214" type="line" smooth="no"/>
      <point x="312" y="213"/>
      <point x="346" y="207"/>
      <point x="355" y="211" type="qcurve" smooth="no"/>
      <point x="376" y="209"/>
      <point x="426" y="211"/>
      <point x="447" y="211" type="qcurve" smooth="no"/>
      <point x="447" y="209" type="line" smooth="no"/>
      <point x="452" y="207"/>
      <point x="464" y="211"/>
      <point x="467" y="209" type="qcurve" smooth="no"/>
      <point x="426" y="23" type="line" smooth="no"/>
      <point x="410" y="24" type="line" smooth="no"/>
      <point x="58" y="31" type="line" smooth="no"/>
      <point x="53" y="33"/>
      <point x="45" y="30"/>
      <point x="41" y="31" type="qcurve" smooth="no"/>
      <point x="47" y="89"/>
      <point x="72" y="202"/>
      <point x="83" y="259" type="qcurve" smooth="no"/>
      <point x="279" y="515" type="line" smooth="no"/>
      <point x="310" y="558" type="line" smooth="no"/>
      <point x="304" y="563"/>
      <point x="286" y="560"/>
      <point x="278" y="561" type="qcurve" smooth="no"/>
      <point x="241" y="560"/>
      <point x="180" y="554"/>
      <point x="146" y="556" type="qcurve" smooth="no"/>
      <point x="151" y="572"/>
      <point x="155" y="605"/>
      <point x="162" y="620" type="qcurve" smooth="no"/>
      <point x="162" y="643"/>
      <point x="182" y="693"/>
      <point x="183" y="716" type="qcurve" smooth="no"/>
      <point x="187" y="719"/>
      <point x="188" y="730"/>
      <point x="190" y="740"/>
      <point x="195" y="747"/>
      <point x="203" y="745" type="qcurve" smooth="no"/>
      <point x="253" y="744" type="line" smooth="no"/>
      <point x="252" y="742" type="line" smooth="no"/>
      <point x="275" y="743" type="line" smooth="no"/>
      <point x="477" y="735" type="line" smooth="no"/>
      <point x="503" y="739"/>
      <point x="556" y="733"/>
      <point x="584" y="736" type="qcurve" smooth="no"/>
    </contour>
    <contour>
      <point x="553" y="619" type="line" smooth="no"/>
      <point x="552" y="619" type="line" smooth="no"/>
      <point x="552" y="616" type="line" smooth="no"/>
      <point x="554" y="616" type="line" smooth="no"/>
    </contour>
    <contour>
      <point x="391" y="682" type="line" smooth="no"/>
      <point x="387" y="677" type="line" smooth="no"/>
    </contour>
    <contour>
      <point x="233" y="742" type="line" smooth="no"/>
      <point x="232" y="741" type="line" smooth="no"/>
      <point x="231" y="745" type="line" smooth="no"/>
      <point x="232" y="746" type="line" smooth="no"/>
    </contour>
  </outline>
</glyph>
<glyph name="underscore" format="1">
  <advance width="467"/>
  <unicode hex="005f"/>
  <outline>
    <contour>
      <point x="0" y="-236" type="line" smooth="no"/>
      <point x="0" y="-98" type="line" smooth="no"/>
      <point x="500" y="-98" type="line" smooth="no"/>
      <point x="500" y="-236" type="line" smooth="no"/>
    </contour>
  </outline>
</glyph>
<glyph name="grave" format="1">
  <advance width="426"/>
  <unicode hex="0060"/>
  <outline>
    <contour>
      <point x="456" y="647" type="qcurve" smooth="yes"/>
      <point x="456" y="624"/>
      <point x="436" y="593"/>
      <point x="417" y="593" type="qcurve" smooth="yes"/>
      <point x="412" y="593"/>
      <point x="395" y="595"/>
      <point x="383" y="598" type="qcurve" smooth="yes"/>
      <point x="199" y="642" type="line" smooth="yes"/>
      <point x="178" y="647"/>
      <point x="164" y="658"/>
      <point x="164" y="671" type="qcurve" smooth="yes"/>
      <point x="164" y="703"/>
      <point x="191" y="752"/>
      <point x="205" y="752" type="qcurve" smooth="yes"/>
      <point x="214" y="752"/>
      <point x="239" y="744" type="line" smooth="yes"/>
      <point x="406" y="684" type="line" smooth="yes"/>
      <point x="432" y="675"/>
      <point x="456" y="661"/>
    </contour>
  </outline>
</glyph>
<glyph name="d" format="1">
  <advance width="638"/>
  <unicode hex="0064"/>
  <outline>
    <contour>
      <point x="567" y="575" type="line" smooth="no"/>
      <point x="576" y="509"/>
      <point x="577" y="368"/>
      <point x="550" y="232"/>
      <point x="489" y="107"/>
      <point x="436" y="57" type="qcurve" smooth="no"/>
      <point x="415" y="44"/>
      <point x="370" y="22"/>
      <point x="345" y="17" type="qcurve" smooth="no"/>
      <point x="88" y="-8" type="line" smooth="no"/>
      <point x="86" y="-10"/>
      <point x="78" y="-10" type="line" smooth="no"/>
      <point x="83" y="66"/>
      <point x="101" y="207"/>
      <point x="108" y="282" type="qcurve" smooth="yes"/>
      <point x="150" y="720" type="line" smooth="no"/>
      <point x="149" y="725"/>
      <point x="157" y="725"/>
      <point x="159" y="727" type="qcurve" smooth="no"/>
      <point x="196" y="729"/>
      <point x="386" y="741"/>
      <point x="421" y="743" type="qcurve" smooth="no"/>
      <point x="438" y="739"/>
      <point x="470" y="735"/>
      <point x="483" y="721" type="qcurve" smooth="no"/>
      <point x="481" y="719"/>
      <point x="475" y="715"/>
      <point x="475" y="712" type="qcurve" smooth="no"/>
      <point x="484" y="712"/>
      <point x="486" y="719" type="qcurve" smooth="no"/>
      <point x="502" y="708"/>
      <point x="523" y="685"/>
      <point x="538" y="659"/>
      <point x="557" y="616" type="line" smooth="no"/>
      <point x="559" y="609"/>
      <point x="563" y="588"/>
      <point x="566" y="582" type="qcurve" smooth="no"/>
      <point x="565" y="575" type="line" smooth="no"/>
    </contour>
    <contour>
      <point x="480" y="713" type="line" smooth="no"/>
      <point x="477" y="710" type="line" smooth="no"/>
      <point x="478" y="709" type="line" smooth="no"/>
      <point x="481" y="712" type="line" smooth="no"/>
    </contour>
    <contour>
      <point x="400" y="522" type="line" smooth="no"/>
      <point x="397" y="520" type="line" smooth="no"/>
      <point x="399" y="518" type="line" smooth="no"/>
      <point x="402" y="521" type="line" smooth="no"/>
    </contour>
    <contour>
      <point x="264" y="554" type="line" smooth="no"/>
      <point x="261" y="551" type="line" smooth="no"/>
      <point x="263" y="550" type="line" smooth="no"/>
      <point x="265" y="553" type="line" smooth="no"/>
    </contour>
    <contour>
      <point x="478" y="288" type="line" smooth="no"/>
      <point x="475" y="285" type="line" smooth="no"/>
      <point x="477" y="283" type="line" smooth="no"/>
      <point x="480" y="286" type="line" smooth="no"/>
    </contour>
    <contour>
      <point x="477" y="261" type="line" smooth="no"/>
      <point x="474" y="258" type="line" smooth="no"/>
      <point x="476" y="257" type="line" smooth="no"/>
      <point x="478" y="260" type="line" smooth="no"/>
    </contour>
    <contour>
      <point x="378" y="524" type="qcurve" smooth="no"/>
      <point x="376" y="535"/>
      <point x="366" y="553"/>
      <point x="355" y="561" type="qcurve" smooth="yes"/>
      <point x="347" y="566"/>
      <point x="323" y="565"/>
      <point x="313" y="564" type="qcurve" smooth="no"/>
      <point x="286" y="198" type="line" smooth="no"/>
      <point x="308" y="203"/>
      <point x="343" y="228"/>
      <point x="351" y="250" type="qcurve" smooth="yes"/>
      <point x="362" y="281"/>
      <point x="372" y="348"/>
      <point x="376" y="418"/>
      <point x="376" y="489"/>
    </contour>
    <contour>
      <point x="405" y="107" type="line" smooth="no"/>
      <point x="402" y="104" type="line" smooth="no"/>
      <point x="404" y="102" type="line" smooth="no"/>
      <point x="407" y="105" type="line" smooth="no"/>
    </contour>
  </outline>
</glyph>
<glyph name="m" format="1">
  <advance width="683"/>
  <unicode hex="006d"/>
  <outline>
    <contour>
      <point x="629" y="397" type="line" smooth="no"/>
      <point x="605" y="221" type="line" smooth="no"/>
      <point x="574" y="21" type="line" smooth="no"/>
      <point x="526" y="17"/>
      <point x="429" y="19"/>
      <point x="384" y="17" type="qcurve" smooth="no"/>
      <point x="383" y="15" type="line" smooth="no"/>
      <point x="384" y="17" type="line" smooth="no"/>
      <point x="381" y="19"/>
      <point x="378" y="16" type="qcurve" smooth="no"/>
      <point x="378" y="25" type="line" smooth="no"/>
      <point x="380" y="25" type="line" smooth="no"/>
      <point x="388" y="107"/>
      <point x="414" y="253"/>
      <point x="422" y="335" type="qcurve" smooth="no"/>
      <point x="394" y="318"/>
      <point x="357" y="269"/>
      <point x="333" y="249" type="qcurve" smooth="no"/>
      <point x="320" y="263"/>
      <point x="299" y="299"/>
      <point x="285" y="313" type="qcurve" smooth="no"/>
      <point x="282" y="310" type="line" smooth="no"/>
      <point x="242" y="11" type="line" smooth="no"/>
      <point x="215" y="9"/>
      <point x="164" y="11"/>
      <point x="138" y="11" type="qcurve" smooth="no"/>
      <point x="138" y="7" type="line" smooth="no"/>
      <point x="133" y="6"/>
      <point x="119" y="10"/>
      <point x="114" y="10" type="qcurve" smooth="no"/>
      <point x="114" y="6" type="line" smooth="no"/>
      <point x="99" y="7"/>
      <point x="58" y="6"/>
      <point x="48" y="10" type="qcurve" smooth="no"/>
      <point x="43" y="6" type="line" smooth="no"/>
      <point x="74" y="234" type="line" smooth="no"/>
      <point x="81" y="277" type="line" smooth="no"/>
      <point x="82" y="276"/>
      <point x="87" y="278" type="qcurve" smooth="no"/>
      <point x="84" y="286" type="line" smooth="no"/>
      <point x="153" y="714" type="line" smooth="no"/>
      <point x="157" y="716"/>
      <point x="156" y="718"/>
      <point x="154" y="719"/>
      <point x="153" y="722"/>
      <point x="156" y="724" type="qcurve" smooth="no"/>
      <point x="197" y="729"/>
      <point x="279" y="730"/>
      <point x="321" y="730" type="qcurve" smooth="no"/>
      <point x="394" y="561" type="line" smooth="no"/>
      <point x="399" y="566" type="line" smooth="no"/>
      <point x="472" y="692"/>
      <point x="495" y="736" type="qcurve" smooth="no"/>
      <point x="543" y="735"/>
      <point x="636" y="741"/>
      <point x="683" y="743" type="qcurve" smooth="no"/>
    </contour>
    <contour>
      <point x="329" y="250" type="line" smooth="no"/>
      <point x="328" y="252" type="line" smooth="no"/>
      <point x="331" y="254" type="line" smooth="no"/>
      <point x="332" y="253" type="line" smooth="no"/>
    </contour>
    <contour>
      <point x="486" y="451" type="line" smooth="no"/>
      <point x="483" y="449" type="line" smooth="no"/>
      <point x="484" y="447" type="line" smooth="no"/>
      <point x="487" y="450" type="line" smooth="no"/>
    </contour>
    <contour>
      <point x="579" y="335" type="line" smooth="no"/>
      <point x="578" y="332" type="line" smooth="no"/>
      <point x="581" y="335" type="line" smooth="no"/>
    </contour>
  </outline>
</glyph>
<glyph name="n" format="1">
  <advance width="675"/>
  <unicode hex="006e"/>
  <outline>
    <contour>
      <point x="653" y="721" type="qcurve" smooth="no"/>
      <point x="642" y="661"/>
      <point x="616" y="539"/>
      <point x="599" y="482" type="qcurve" smooth="no"/>
      <point x="601" y="480" type="line" smooth="no"/>
      <point x="592" y="431" type="line" smooth="no"/>
      <point x="591" y="433"/>
      <point x="589" y="431"/>
      <point x="588" y="431" type="qcurve" smooth="no"/>
      <point x="590" y="423"/>
      <point x="586" y="405"/>
      <point x="584" y="397" type="qcurve" smooth="yes"/>
      <point x="560" y="291" type="line" smooth="no"/>
      <point x="502" y="33" type="line" smooth="no"/>
      <point x="500" y="30"/>
      <point x="500" y="17"/>
      <point x="497" y="12" type="qcurve" smooth="no"/>
      <point x="474" y="12"/>
      <point x="469" y="16" type="qcurve" smooth="no"/>
      <point x="461" y="13"/>
      <point x="443" y="14"/>
      <point x="433" y="15" type="qcurve" smooth="yes"/>
      <point x="425" y="15"/>
      <point x="402" y="17"/>
      <point x="393" y="19" type="qcurve" smooth="no"/>
      <point x="386" y="17"/>
      <point x="364" y="17" type="line" smooth="yes"/>
      <point x="350" y="16"/>
      <point x="319" y="20"/>
      <point x="307" y="20" type="qcurve" smooth="no"/>
      <point x="357" y="231" type="line" smooth="no"/>
      <point x="352" y="258"/>
      <point x="324" y="304"/>
      <point x="311" y="331" type="qcurve" smooth="no"/>
      <point x="290" y="254"/>
      <point x="262" y="102"/>
      <point x="239" y="23" type="qcurve" smooth="no"/>
      <point x="208" y="24"/>
      <point x="155" y="23"/>
      <point x="124" y="25" type="qcurve" smooth="no"/>
      <point x="123" y="28" type="line" smooth="no"/>
      <point x="107" y="24"/>
      <point x="71" y="25"/>
      <point x="53" y="25" type="qcurve" smooth="no"/>
      <point x="52" y="27" type="line" smooth="no"/>
      <point x="47" y="24" type="line" smooth="no"/>
      <point x="118" y="363" type="line" smooth="no"/>
      <point x="162" y="584" type="line" smooth="yes"/>
      <point x="186" y="705"/>
      <point x="197" y="746" type="qcurve" smooth="no"/>
      <point x="235" y="741"/>
      <point x="311" y="744"/>
      <point x="350" y="737" type="qcurve" smooth="no"/>
      <point x="423" y="571" type="line" smooth="no"/>
      <point x="437" y="609"/>
      <point x="453" y="690"/>
      <point x="463" y="731" type="qcurve" smooth="no"/>
      <point x="511" y="729"/>
      <point x="605" y="723"/>
    </contour>
    <contour>
      <point x="563" y="391" type="line" smooth="no"/>
      <point x="562" y="388" type="line" smooth="no"/>
      <point x="565" y="387" type="line" smooth="no"/>
      <point x="566" y="390" type="line" smooth="no"/>
    </contour>
    <contour>
      <point x="330" y="565" type="line" smooth="no"/>
      <point x="329" y="562" type="line" smooth="no"/>
      <point x="330" y="561" type="line" smooth="no"/>
      <point x="331" y="565" type="line" smooth="no"/>
    </contour>
    <contour>
      <point x="248" y="269" type="line" smooth="no"/>
      <point x="247" y="266" type="line" smooth="no"/>
      <point x="249" y="266"/>
      <point x="251" y="268" type="qcurve" smooth="no"/>
    </contour>
  </outline>
</glyph>
<glyph name="s" format="1">
  <advance width="573"/>
  <unicode hex="0073"/>
  <outline>
    <contour>
      <point x="538" y="585" type="qcurve" smooth="no"/>
      <point x="539" y="567"/>
      <point x="538" y="529"/>
      <point x="533" y="512" type="qcurve" smooth="no"/>
      <point x="536" y="511" type="line" smooth="no"/>
      <point x="532" y="491" type="line" smooth="no"/>
      <point x="497" y="489"/>
      <point x="427" y="490"/>
      <point x="393" y="488" type="qcurve" smooth="no"/>
      <point x="391" y="498"/>
      <point x="386" y="530"/>
      <point x="373" y="539" type="qcurve" smooth="yes"/>
      <point x="357" y="551"/>
      <point x="328" y="541"/>
      <point x="311" y="538" type="qcurve" smooth="no"/>
      <point x="310" y="533" type="line" smooth="no"/>
      <point x="307" y="534"/>
      <point x="303" y="532" type="qcurve" smooth="no"/>
      <point x="301" y="524"/>
      <point x="287" y="495"/>
      <point x="291" y="481" type="qcurve" smooth="no"/>
      <point x="304" y="458"/>
      <point x="345" y="427"/>
      <point x="440" y="376"/>
      <point x="458" y="358" type="qcurve" smooth="no"/>
      <point x="484" y="326"/>
      <point x="508" y="236"/>
      <point x="491" y="194" type="qcurve" smooth="no"/>
      <point x="483" y="134"/>
      <point x="409" y="49"/>
      <point x="352" y="32" type="qcurve" smooth="yes"/>
      <point x="322" y="23"/>
      <point x="253" y="15"/>
      <point x="184" y="23"/>
      <point x="119" y="49"/>
      <point x="92" y="73" type="qcurve" smooth="no"/>
      <point x="76" y="93"/>
      <point x="72" y="138"/>
      <point x="80" y="185"/>
      <point x="92" y="234"/>
      <point x="94" y="258" type="qcurve" smooth="no"/>
      <point x="103" y="262" type="line" smooth="no"/>
      <point x="243" y="262" type="line" smooth="no"/>
      <point x="241" y="253"/>
      <point x="236" y="234"/>
      <point x="233" y="216"/>
      <point x="236" y="197"/>
      <point x="243" y="188" type="qcurve" smooth="no"/>
      <point x="254" y="180"/>
      <point x="280" y="178"/>
      <point x="292" y="181" type="qcurve" smooth="yes"/>
      <point x="304" y="185"/>
      <point x="312" y="211"/>
      <point x="320" y="216" type="qcurve" smooth="no"/>
      <point x="326" y="238"/>
      <point x="320" y="284"/>
      <point x="303" y="301" type="qcurve" smooth="yes"/>
      <point x="282" y="321"/>
      <point x="183" y="384"/>
      <point x="141" y="424"/>
      <point x="128" y="453" type="qcurve" smooth="no"/>
      <point x="133" y="456"/>
      <point x="127" y="460"/>
      <point x="129" y="464" type="qcurve" smooth="yes"/>
      <point x="135" y="488"/>
      <point x="143" y="538"/>
      <point x="155" y="586"/>
      <point x="177" y="630"/>
      <point x="198" y="647" type="qcurve" smooth="yes"/>
      <point x="249" y="689"/>
      <point x="377" y="723"/>
      <point x="438" y="701" type="qcurve" smooth="yes"/>
      <point x="476" y="687"/>
      <point x="530" y="627"/>
    </contour>
    <contour>
      <point x="306" y="196" type="line" smooth="no"/>
      <point x="305" y="198" type="line" smooth="no"/>
      <point x="309" y="200" type="line" smooth="no"/>
      <point x="310" y="198" type="line" smooth="no"/>
    </contour>
    <contour>
      <point x="77" y="128" type="line" smooth="no"/>
      <point x="73" y="126" type="line" smooth="no"/>
      <point x="74" y="125" type="line" smooth="no"/>
      <point x="77" y="126" type="line" smooth="no"/>
    </contour>
  </outline>
</glyph>
<glyph name="u" format="1">
  <advance width="598"/>
  <unicode hex="0075"/>
  <outline>
    <contour>
      <point x="519" y="356" type="line" smooth="yes"/>
      <point x="510" y="288"/>
      <point x="489" y="150"/>
      <point x="458" y="91" type="qcurve" smooth="no"/>
      <point x="429" y="60"/>
      <point x="358" y="18"/>
      <point x="278" y="-3"/>
      <point x="194" y="0"/>
      <point x="154" y="15" type="qcurve" smooth="yes"/>
      <point x="134" y="22"/>
      <point x="98" y="50"/>
      <point x="71" y="86"/>
      <point x="56" y="127"/>
      <point x="56" y="148" type="qcurve" smooth="no"/>
      <point x="51" y="147"/>
      <point x="54" y="158"/>
      <point x="53" y="163" type="qcurve" smooth="no"/>
      <point x="56" y="230"/>
      <point x="72" y="351"/>
      <point x="80" y="418" type="qcurve" smooth="yes"/>
      <point x="105" y="630" type="line" smooth="no"/>
      <point x="108" y="643"/>
      <point x="111" y="674"/>
      <point x="115" y="689" type="qcurve" smooth="no"/>
      <point x="113" y="691" type="line" smooth="no"/>
      <point x="158" y="692"/>
      <point x="247" y="695"/>
      <point x="291" y="696" type="qcurve" smooth="no"/>
      <point x="251" y="259" type="line" smooth="no"/>
      <point x="253" y="248"/>
      <point x="254" y="226"/>
      <point x="259" y="205"/>
      <point x="270" y="188"/>
      <point x="282" y="183" type="qcurve" smooth="no"/>
      <point x="295" y="182"/>
      <point x="315" y="195"/>
      <point x="321" y="205" type="qcurve" smooth="no"/>
      <point x="333" y="265"/>
      <point x="348" y="383"/>
      <point x="373" y="622"/>
      <point x="382" y="685" type="qcurve" smooth="yes"/>
      <point x="384" y="699" type="line" smooth="no"/>
      <point x="516" y="702"/>
      <point x="564" y="704" type="qcurve" smooth="no"/>
    </contour>
    <contour>
      <point x="523" y="583" type="line" smooth="no"/>
      <point x="521" y="583" type="line" smooth="no"/>
      <point x="521" y="571" type="line" smooth="no"/>
      <point x="523" y="571" type="line" smooth="no"/>
    </contour>
    <contour>
      <point x="442" y="532" type="line" smooth="no"/>
      <point x="441" y="532" type="line" smooth="no"/>
      <point x="441" y="528" type="line" smooth="no"/>
      <point x="442" y="528" type="line" smooth="no"/>
    </contour>
    <contour>
      <point x="151" y="548" type="line" smooth="no"/>
      <point x="149" y="548" type="line" smooth="no"/>
      <point x="149" y="544" type="line" smooth="no"/>
      <point x="151" y="544" type="line" smooth="no"/>
    </contour>
    <contour>
      <point x="291" y="177" type="line" smooth="no"/>
      <point x="290" y="177" type="line" smooth="no"/>
      <point x="290" y="173" type="line" smooth="no"/>
      <point x="291" y="173" type="line" smooth="no"/>
    </contour>
    <contour>
      <point x="82" y="328" type="line" smooth="no"/>
      <point x="80" y="328" type="line" smooth="no"/>
      <point x="80" y="324" type="line" smooth="no"/>
      <point x="82" y="324" type="line" smooth="no"/>
    </contour>
  </outline>
</glyph>
<glyph name="v" format="1">
  <advance width="661"/>
  <unicode hex="0076"/>
  <outline>
    <contour>
      <point x="346" y="-1" type="line" smooth="no"/>
      <point x="287" y="-4"/>
      <point x="163" y="-13"/>
      <point x="103" y="-14" type="qcurve" smooth="no"/>
      <point x="75" y="508" type="line" smooth="no"/>
      <point x="65" y="691" type="line" smooth="no"/>
      <point x="116" y="696"/>
      <point x="264" y="699" type="line" smooth="no"/>
      <point x="267" y="674"/>
      <point x="267" y="627"/>
      <point x="269" y="601" type="qcurve" smooth="yes"/>
      <point x="279" y="382" type="line" smooth="no"/>
      <point x="281" y="327" type="line" smooth="no"/>
      <point x="286" y="325" type="line" smooth="no"/>
      <point x="374" y="486" type="line" smooth="no"/>
      <point x="487" y="706" type="line" smooth="no"/>
      <point x="488" y="713"/>
      <point x="502" y="710"/>
      <point x="507" y="713" type="qcurve" smooth="no"/>
      <point x="554" y="716"/>
      <point x="649" y="721"/>
      <point x="697" y="720" type="qcurve" smooth="no"/>
    </contour>
    <contour>
      <point x="246" y="656" type="line" smooth="no"/>
      <point x="245" y="655" type="line" smooth="no"/>
      <point x="246" y="652" type="line" smooth="no"/>
      <point x="247" y="652" type="line" smooth="no"/>
    </contour>
    <contour>
      <point x="222" y="633" type="line" smooth="no"/>
      <point x="221" y="632" type="line" smooth="no"/>
      <point x="222" y="628" type="line" smooth="no"/>
      <point x="223" y="629" type="line" smooth="no"/>
    </contour>
    <contour>
      <point x="97" y="413" type="line" smooth="no"/>
      <point x="92" y="409" type="line" smooth="no"/>
      <point x="93" y="406"/>
      <point x="98" y="409" type="qcurve" smooth="no"/>
    </contour>
    <contour>
      <point x="85" y="411" type="line" smooth="no"/>
      <point x="83" y="410" type="line" smooth="no"/>
      <point x="84" y="406" type="line" smooth="no"/>
      <point x="86" y="407" type="line" smooth="no"/>
    </contour>
  </outline>
</glyph>
<glyph name="asciitilde" format="1">
  <advance width="779"/>
  <unicode hex="007e"/>
  <outline>
    <contour>
      <point x="747" y="265" type="line" smooth="no"/>
      <point x="699" y="233"/>
      <point x="611" y="200"/>
      <point x="566" y="200" type="qcurve" smooth="yes"/>
      <point x="530" y="200"/>
      <point x="466" y="217"/>
      <point x="436" y="228" type="qcurve" smooth="yes"/>
      <point x="398" y="241"/>
      <point x="320" y="262"/>
      <point x="274" y="262" type="qcurve" smooth="yes"/>
      <point x="230" y="262"/>
      <point x="140" y="223"/>
      <point x="87" y="185" type="qcurve" smooth="no"/>
      <point x="87" y="331" type="line" smooth="no"/>
      <point x="141" y="365"/>
      <point x="236" y="401"/>
      <point x="286" y="401" type="qcurve" smooth="yes"/>
      <point x="320" y="401"/>
      <point x="387" y="386"/>
      <point x="422" y="375" type="qcurve" smooth="yes"/>
      <point x="529" y="338"/>
      <point x="568" y="338" type="qcurve" smooth="yes"/>
      <point x="612" y="338"/>
      <point x="699" y="375"/>
      <point x="747" y="411" type="qcurve" smooth="no"/>
      <point x="747" y="265" type="line" smooth="no"/>
    </contour>
  </outline>
</glyph>
<glyph name="dieresis" format="1">
  <advance width="456"/>
  <unicode hex="00a8"/>
  <outline>
    <contour>
      <point x="489" y="669" type="qcurve" smooth="yes"/>
      <point x="489" y="634"/>
      <point x="447" y="592"/>
      <point x="416" y="592" type="qcurve" smooth="yes"/>
      <point x="390" y="592"/>
      <point x="359" y="625"/>
      <point x="359" y="651" type="qcurve" smooth="yes"/>
      <point x="359" y="682"/>
      <point x="402" y="730"/>
      <point x="433" y="730" type="qcurve" smooth="yes"/>
      <point x="459" y="730"/>
      <point x="489" y="697"/>
    </contour>
    <contour>
      <point x="280" y="670" type="qcurve" smooth="yes"/>
      <point x="280" y="635"/>
      <point x="238" y="592"/>
      <point x="204" y="592" type="qcurve" smooth="yes"/>
      <point x="181" y="592"/>
      <point x="150" y="625"/>
      <point x="150" y="651" type="qcurve" smooth="yes"/>
      <point x="150" y="683"/>
      <point x="193" y="730"/>
      <point x="224" y="730" type="qcurve" smooth="yes"/>
      <point x="250" y="730"/>
      <point x="280" y="698"/>
    </contour>
  </outline>
</glyph>
<glyph name="macron" format="1">
  <advance width="431"/>
  <unicode hex="00af"/>
  <unicode hex="02c9"/>
  <outline>
    <contour>
      <point x="462" y="687" type="qcurve" smooth="yes"/>
      <point x="462" y="665"/>
      <point x="456" y="638"/>
      <point x="445" y="623"/>
      <point x="428" y="618"/>
      <point x="416" y="618" type="qcurve" smooth="yes"/>
      <point x="215" y="618" type="line" smooth="yes"/>
      <point x="196" y="618"/>
      <point x="181" y="624"/>
      <point x="181" y="638" type="qcurve" smooth="yes"/>
      <point x="181" y="680"/>
      <point x="204" y="707"/>
      <point x="227" y="707" type="qcurve" smooth="yes"/>
      <point x="420" y="707" type="line" smooth="yes"/>
      <point x="443" y="707"/>
      <point x="462" y="702"/>
    </contour>
  </outline>
</glyph>
<glyph name="cedilla" format="1">
  <advance width="353"/>
  <unicode hex="00b8"/>
  <outline>
    <contour>
      <point x="349" y="-123" type="qcurve" smooth="yes"/>
      <point x="349" y="-169"/>
      <point x="278" y="-225"/>
      <point x="213" y="-225" type="qcurve" smooth="yes"/>
      <point x="146" y="-225"/>
      <point x="67" y="-192"/>
      <point x="67" y="-170" type="qcurve" smooth="yes"/>
      <point x="67" y="-156"/>
      <point x="85" y="-137"/>
      <point x="99" y="-137" type="qcurve" smooth="yes"/>
      <point x="108" y="-137"/>
      <point x="154" y="-152"/>
      <point x="183" y="-159"/>
      <point x="200" y="-159" type="qcurve" smooth="yes"/>
      <point x="248" y="-159"/>
      <point x="248" y="-128" type="qcurve" smooth="yes"/>
      <point x="248" y="-109"/>
      <point x="211" y="-100"/>
      <point x="171" y="-100" type="qcurve" smooth="yes"/>
      <point x="159" y="-100"/>
      <point x="150" y="-91"/>
      <point x="150" y="-75" type="qcurve" smooth="yes"/>
      <point x="150" y="-70"/>
      <point x="161" y="0" type="line" smooth="no"/>
      <point x="219" y="0" type="line" smooth="no"/>
      <point x="216" y="-27"/>
      <point x="216" y="-47" type="qcurve" smooth="no"/>
      <point x="235" y="-43"/>
      <point x="255" y="-43" type="qcurve" smooth="yes"/>
      <point x="300" y="-43"/>
      <point x="349" y="-87"/>
    </contour>
  </outline>
</glyph>
<glyph name="multiply" format="1">
  <advance width="768"/>
  <unicode hex="00d7"/>
  <outline>
    <contour>
      <point x="636" y="-4" type="line" smooth="no"/>
      <point x="427" y="205" type="line" smooth="no"/>
      <point x="218" y="-4" type="line" smooth="no"/>
      <point x="125" y="89" type="line" smooth="no"/>
      <point x="334" y="298" type="line" smooth="no"/>
      <point x="125" y="507" type="line" smooth="no"/>
      <point x="218" y="601" type="line" smooth="no"/>
      <point x="427" y="392" type="line" smooth="no"/>
      <point x="636" y="601" type="line" smooth="no"/>
      <point x="730" y="507" type="line" smooth="no"/>
      <point x="521" y="298" type="line" smooth="no"/>
      <point x="730" y="89" type="line" smooth="no"/>
    </contour>
  </outline>
</glyph>
<glyph name="eacute" format="1">
  <advance width="531"/>
  <unicode hex="00e9"/>
  <outline>
    <contour>
      <point x="495" y="696" type="qcurve" smooth="no"/>
      <point x="488" y="655"/>
      <point x="476" y="575"/>
      <point x="469" y="533" type="qcurve" smooth="no"/>
      <point x="436" y="531"/>
      <point x="373" y="535"/>
      <point x="340" y="533" type="qcurve" smooth="no"/>
      <point x="336" y="528" type="line" smooth="no"/>
      <point x="317" y="412" type="line" smooth="no"/>
      <point x="352" y="411"/>
      <point x="412" y="410"/>
      <point x="447" y="409" type="qcurve" smooth="no"/>
      <point x="442" y="374"/>
      <point x="431" y="305"/>
      <point x="426" y="270" type="qcurve" smooth="no"/>
      <point x="394" y="267"/>
      <point x="322" y="270"/>
      <point x="287" y="268" type="qcurve" smooth="no"/>
      <point x="283" y="261"/>
      <point x="282" y="238"/>
      <point x="280" y="231" type="qcurve" smooth="no"/>
      <point x="272" y="162" type="line" smooth="no"/>
      <point x="308" y="157"/>
      <point x="369" y="161"/>
      <point x="407" y="162" type="qcurve" smooth="no"/>
      <point x="403" y="124"/>
      <point x="389" y="52"/>
      <point x="385" y="14" type="qcurve" smooth="no"/>
      <point x="300" y="11"/>
      <point x="137" y="17"/>
      <point x="52" y="12" type="qcurve" smooth="no"/>
      <point x="62" y="71"/>
      <point x="84" y="179"/>
      <point x="92" y="239" type="qcurve" smooth="no"/>
      <point x="93" y="239" type="line" smooth="no"/>
      <point x="125" y="422" type="line" smooth="no"/>
      <point x="127" y="423"/>
      <point x="128" y="436"/>
      <point x="132" y="440" type="qcurve" smooth="no"/>
      <point x="139" y="498"/>
      <point x="164" y="630"/>
      <point x="174" y="695" type="qcurve" smooth="no"/>
      <point x="248" y="699" type="line" smooth="no"/>
      <point x="260" y="739"/>
      <point x="262" y="754" type="qcurve" smooth="no"/>
      <point x="418" y="757" type="line" smooth="no"/>
      <point x="413" y="743"/>
      <point x="405" y="713"/>
      <point x="403" y="696" type="qcurve" smooth="no"/>
      <point x="430" y="696"/>
      <point x="472" y="691"/>
    </contour>
    <contour>
      <point x="130" y="451" type="line" smooth="no"/>
      <point x="130" y="453" type="line" smooth="no"/>
      <point x="134" y="453" type="line" smooth="no"/>
      <point x="134" y="451" type="line" smooth="no"/>
    </contour>
    <contour>
      <point x="128" y="443" type="line" smooth="no"/>
      <point x="128" y="445" type="line" smooth="no"/>
      <point x="132" y="445" type="line" smooth="no"/>
      <point x="132" y="443" type="line" smooth="no"/>
    </contour>
    <contour>
      <point x="301" y="606" type="line" smooth="no"/>
      <point x="309" y="587" type="line" smooth="no"/>
      <point x="314" y="588" type="line" smooth="no"/>
    </contour>
    <contour>
      <point x="254" y="444" type="line" smooth="no"/>
      <point x="252" y="442" type="line" smooth="no"/>
      <point x="254" y="440" type="line" smooth="no"/>
    </contour>
    <contour>
      <point x="147" y="408" type="line" smooth="no"/>
      <point x="143" y="408" type="line" smooth="no"/>
      <point x="143" y="406" type="line" smooth="no"/>
      <point x="147" y="407" type="line" smooth="no"/>
    </contour>
    <contour>
      <point x="151" y="403" type="line" smooth="no"/>
      <point x="147" y="402" type="line" smooth="no"/>
      <point x="147" y="401" type="line" smooth="no"/>
      <point x="151" y="401" type="line" smooth="no"/>
    </contour>
    <contour>
      <point x="128" y="386" type="line" smooth="no"/>
      <point x="124" y="386" type="line" smooth="no"/>
      <point x="124" y="384" type="line" smooth="no"/>
      <point x="128" y="384" type="line" smooth="no"/>
    </contour>
    <contour>
      <point x="272" y="88" type="line" smooth="no"/>
      <point x="268" y="87" type="line" smooth="no"/>
      <point x="268" y="86" type="line" smooth="no"/>
      <point x="272" y="86" type="line" smooth="no"/>
    </contour>
  </outline>
</glyph>
<glyph name="dotlessi" format="1">
  <advance width="398"/>
  <unicode hex="0131"/>
  <outline>
    <contour>
      <point x="346" y="125" type="qcurve" smooth="yes"/>
      <point x="346" y="107"/>
      <point x="321" y="68"/>
      <point x="296" y="50" type="qcurve" smooth="yes"/>
      <point x="256" y="21"/>
      <point x="171" y="-8"/>
      <point x="133" y="-8" type="qcurve" smooth="yes"/>
      <point x="40" y="-8"/>
      <point x="40" y="63" type="qcurve" smooth="yes"/>
      <point x="40" y="81"/>
      <point x="46" y="125"/>
      <point x="51" y="151" type="qcurve" smooth="yes"/>
      <point x="85" y="317" type="line" smooth="yes"/>
      <point x="89" y="335"/>
      <point x="93" y="358"/>
      <point x="93" y="365" type="qcurve" smooth="yes"/>
      <point x="93" y="374"/>
      <point x="89" y="381"/>
      <point x="81" y="384"/>
      <point x="68" y="385"/>
      <point x="59" y="387" type="qcurve" smooth="yes"/>
      <point x="33" y="393"/>
      <point x="33" y="418" type="qcurve" smooth="yes"/>
      <point x="33" y="459"/>
      <point x="100" y="492" type="qcurve" smooth="yes"/>
      <point x="144" y="513"/>
      <point x="244" y="537"/>
      <point x="284" y="537" type="qcurve" smooth="yes"/>
      <point x="310" y="537"/>
      <point x="341" y="509"/>
      <point x="341" y="483" type="qcurve" smooth="yes"/>
      <point x="341" y="460"/>
      <point x="324" y="372" type="qcurve" smooth="yes"/>
      <point x="307" y="286" type="line" smooth="yes"/>
      <point x="297" y="238"/>
      <point x="289" y="181"/>
      <point x="289" y="171" type="qcurve" smooth="yes"/>
      <point x="289" y="155"/>
      <point x="296" y="155" type="qcurve" smooth="yes"/>
      <point x="304" y="155"/>
      <point x="316" y="157"/>
      <point x="321" y="157" type="qcurve" smooth="yes"/>
      <point x="346" y="157"/>
    </contour>
  </outline>
</glyph>
<glyph name="caron" format="1">
  <advance width="469"/>
  <unicode hex="02c7"/>
  <outline>
    <contour>
      <point x="502" y="744" type="qcurve" smooth="yes"/>
      <point x="502" y="739"/>
      <point x="489" y="723"/>
      <point x="478" y="711" type="qcurve" smooth="yes"/>
      <point x="376" y="603" type="line" smooth="yes"/>
      <point x="367" y="593"/>
      <point x="344" y="589"/>
      <point x="327" y="589" type="qcurve" smooth="yes"/>
      <point x="318" y="589" type="line" smooth="yes"/>
      <point x="301" y="589"/>
      <point x="280" y="591"/>
      <point x="268" y="597"/>
      <point x="261" y="606"/>
      <point x="257" y="613" type="qcurve" smooth="yes"/>
      <point x="193" y="724" type="line" smooth="yes"/>
      <point x="191" y="729"/>
      <point x="185" y="737"/>
      <point x="185" y="743" type="qcurve" smooth="yes"/>
      <point x="185" y="752"/>
      <point x="206" y="757"/>
      <point x="227" y="757" type="qcurve" smooth="yes"/>
      <point x="238" y="757" type="line" smooth="yes"/>
      <point x="253" y="757"/>
      <point x="272" y="754"/>
      <point x="277" y="747" type="qcurve" smooth="yes"/>
      <point x="283" y="739"/>
      <point x="308" y="698"/>
      <point x="325" y="663" type="qcurve" smooth="no"/>
      <point x="380" y="729"/>
      <point x="395" y="742" type="qcurve" smooth="yes"/>
      <point x="407" y="752"/>
      <point x="429" y="757"/>
      <point x="442" y="757" type="qcurve" smooth="yes"/>
      <point x="466" y="757" type="line" smooth="yes"/>
      <point x="502" y="757"/>
    </contour>
  </outline>
</glyph>
<glyph name="breve" format="1">
  <advance width="430"/>
  <unicode hex="02d8"/>
  <outline>
    <contour>
      <point x="461" y="733" type="qcurve" smooth="yes"/>
      <point x="461" y="728"/>
      <point x="444" y="688"/>
      <point x="423" y="662" type="qcurve" smooth="yes"/>
      <point x="390" y="620"/>
      <point x="311" y="576"/>
      <point x="275" y="576" type="qcurve" smooth="yes"/>
      <point x="221" y="576"/>
      <point x="161" y="652"/>
      <point x="161" y="710" type="qcurve" smooth="yes"/>
      <point x="161" y="747"/>
      <point x="183" y="747" type="qcurve" smooth="yes"/>
      <point x="199" y="747"/>
      <point x="206" y="728"/>
      <point x="214" y="713" type="qcurve" smooth="yes"/>
      <point x="231" y="678"/>
      <point x="288" y="678" type="qcurve" smooth="yes"/>
      <point x="337" y="678"/>
      <point x="389" y="712" type="qcurve" smooth="yes"/>
      <point x="412" y="727"/>
      <point x="439" y="747"/>
      <point x="448" y="747" type="qcurve" smooth="yes"/>
      <point x="461" y="747"/>
    </contour>
  </outline>
</glyph>
<glyph name="quotesinglbase" format="1">
  <advance width="283"/>
  <unicode hex="201a"/>
  <outline>
    <contour>
      <point x="225" y="92" type="qcurve" smooth="yes"/>
      <point x="225" y="-12"/>
      <point x="143" y="-109" type="qcurve" smooth="yes"/>
      <point x="116" y="-140"/>
      <point x="70" y="-171"/>
      <point x="55" y="-171" type="qcurve" smooth="yes"/>
      <point x="48" y="-171"/>
      <point x="30" y="-162"/>
      <point x="14" y="-147"/>
      <point x="3" y="-128"/>
      <point x="3" y="-119" type="qcurve" smooth="yes"/>
      <point x="3" y="-114"/>
      <point x="9" y="-109"/>
      <point x="13" y="-104" type="qcurve" smooth="yes"/>
      <point x="34" y="-81" type="line" smooth="yes"/>
      <point x="57" y="-57"/>
      <point x="77" y="-14"/>
      <point x="77" y="-6" type="qcurve" smooth="yes"/>
      <point x="77" y="5"/>
      <point x="65" y="14"/>
      <point x="56" y="20" type="qcurve" smooth="yes"/>
      <point x="27" y="39"/>
      <point x="0" y="83"/>
      <point x="0" y="116" type="qcurve" smooth="yes"/>
      <point x="0" y="139"/>
      <point x="17" y="179"/>
      <point x="48" y="209"/>
      <point x="90" y="226"/>
      <point x="114" y="226" type="qcurve" smooth="yes"/>
      <point x="164" y="226"/>
      <point x="225" y="155"/>
    </contour>
  </outline>
</glyph>
<glyph name="daggerdbl" format="1">
  <advance width="563"/>
  <unicode hex="2021"/>
  <outline>
    <contour>
      <point x="585" y="487" type="qcurve" smooth="yes"/>
      <point x="585" y="439"/>
      <point x="545" y="386"/>
      <point x="510" y="386" type="qcurve" smooth="yes"/>
      <point x="496" y="386"/>
      <point x="465" y="397"/>
      <point x="429" y="413"/>
      <point x="387" y="430"/>
      <point x="362" y="435" type="qcurve" smooth="no"/>
      <point x="361" y="430"/>
      <point x="361" y="413" type="line" smooth="yes"/>
      <point x="361" y="383"/>
      <point x="378" y="311"/>
      <point x="395" y="266" type="qcurve" smooth="no"/>
      <point x="363" y="216"/>
      <point x="325" y="135"/>
      <point x="320" y="100" type="qcurve" smooth="no"/>
      <point x="345" y="104"/>
      <point x="426" y="136"/>
      <point x="460" y="148"/>
      <point x="476" y="148" type="qcurve" smooth="yes"/>
      <point x="505" y="148"/>
      <point x="535" y="114"/>
      <point x="535" y="83" type="qcurve" smooth="yes"/>
      <point x="535" y="37"/>
      <point x="496" y="-13"/>
      <point x="461" y="-13" type="qcurve" smooth="yes"/>
      <point x="445" y="-13"/>
      <point x="335" y="30"/>
      <point x="310" y="35" type="qcurve" smooth="no"/>
      <point x="310" y="23" type="line" smooth="yes"/>
      <point x="310" y="-1"/>
      <point x="319" y="-43"/>
      <point x="331" y="-79"/>
      <point x="340" y="-111"/>
      <point x="340" y="-126" type="qcurve" smooth="yes"/>
      <point x="340" y="-161"/>
      <point x="292" y="-207"/>
      <point x="250" y="-207" type="qcurve" smooth="yes"/>
      <point x="173" y="-207"/>
      <point x="173" y="-143" type="qcurve" smooth="yes"/>
      <point x="173" y="-126"/>
      <point x="185" y="-94"/>
      <point x="194" y="-76" type="qcurve" smooth="yes"/>
      <point x="234" y="-4"/>
      <point x="237" y="34" type="qcurve" smooth="no"/>
      <point x="210" y="30"/>
      <point x="165" y="15"/>
      <point x="91" y="-12"/>
      <point x="75" y="-12" type="qcurve" smooth="yes"/>
      <point x="47" y="-12"/>
      <point x="16" y="20"/>
      <point x="16" y="48" type="qcurve" smooth="yes"/>
      <point x="16" y="96"/>
      <point x="57" y="148"/>
      <point x="92" y="148" type="qcurve" smooth="yes"/>
      <point x="106" y="148"/>
      <point x="136" y="137"/>
      <point x="172" y="121"/>
      <point x="214" y="104"/>
      <point x="239" y="99" type="qcurve" smooth="no"/>
      <point x="240" y="105"/>
      <point x="240" y="123" type="line" smooth="yes"/>
      <point x="240" y="190"/>
      <point x="205" y="266" type="qcurve" smooth="no"/>
      <point x="238" y="316"/>
      <point x="277" y="398"/>
      <point x="282" y="434" type="qcurve" smooth="no"/>
      <point x="256" y="429"/>
      <point x="213" y="414"/>
      <point x="176" y="398"/>
      <point x="142" y="387"/>
      <point x="126" y="387" type="qcurve" smooth="yes"/>
      <point x="67" y="387"/>
      <point x="67" y="451" type="qcurve" smooth="yes"/>
      <point x="67" y="497"/>
      <point x="106" y="547"/>
      <point x="141" y="547" type="qcurve" smooth="yes"/>
      <point x="157" y="547"/>
      <point x="267" y="503"/>
      <point x="292" y="499" type="qcurve" smooth="no"/>
      <point x="292" y="511" type="line" smooth="yes"/>
      <point x="292" y="535"/>
      <point x="283" y="577"/>
      <point x="271" y="613"/>
      <point x="262" y="645"/>
      <point x="262" y="660" type="qcurve" smooth="yes"/>
      <point x="262" y="695"/>
      <point x="309" y="741"/>
      <point x="351" y="741" type="qcurve" smooth="yes"/>
      <point x="428" y="741"/>
      <point x="428" y="677" type="qcurve" smooth="yes"/>
      <point x="428" y="660"/>
      <point x="417" y="628"/>
      <point x="408" y="610" type="qcurve" smooth="yes"/>
      <point x="368" y="538"/>
      <point x="365" y="500" type="qcurve" smooth="no"/>
      <point x="392" y="504"/>
      <point x="437" y="519"/>
      <point x="511" y="546"/>
      <point x="527" y="546" type="qcurve" smooth="yes"/>
      <point x="555" y="546"/>
      <point x="585" y="515"/>
    </contour>
  </outline>
</glyph>
<glyph name="bullet" format="1">
  <advance width="453"/>
  <unicode hex="2022"/>
  <outline>
    <contour>
      <point x="439" y="372" type="qcurve" smooth="yes"/>
      <point x="439" y="342"/>
      <point x="416" y="290"/>
      <point x="377" y="250"/>
      <point x="324" y="227"/>
      <point x="294" y="227" type="qcurve" smooth="yes"/>
      <point x="264" y="227"/>
      <point x="211" y="250"/>
      <point x="172" y="289"/>
      <point x="150" y="342"/>
      <point x="150" y="372" type="qcurve" smooth="yes"/>
      <point x="150" y="402"/>
      <point x="173" y="454"/>
      <point x="212" y="493"/>
      <point x="265" y="516"/>
      <point x="295" y="516" type="qcurve" smooth="yes"/>
      <point x="325" y="516"/>
      <point x="377" y="493"/>
      <point x="416" y="454"/>
      <point x="439" y="402"/>
    </contour>
  </outline>
</glyph>
<glyph name="fraction" format="1">
  <advance width="319"/>
  <unicode hex="2044"/>
  <unicode hex="2215"/>
  <outline>
    <contour>
      <point x="342" y="597" type="qcurve" smooth="yes"/>
      <point x="342" y="587"/>
      <point x="305" y="543" type="line" smooth="yes"/>
      <point x="267" y="498"/>
      <point x="140" y="315"/>
      <point x="54" y="175" type="qcurve" smooth="yes"/>
      <point x="-2" y="84"/>
      <point x="-48" y="-18"/>
      <point x="-52" y="-26" type="qcurve" smooth="yes"/>
      <point x="-57" y="-37"/>
      <point x="-66" y="-45"/>
      <point x="-74" y="-45" type="qcurve" smooth="yes"/>
      <point x="-90" y="-45"/>
      <point x="-159" y="0" type="qcurve" smooth="yes"/>
      <point x="-165" y="4"/>
      <point x="-172" y="15"/>
      <point x="-172" y="20" type="qcurve" smooth="yes"/>
      <point x="-172" y="26"/>
      <point x="38" y="345" type="line" smooth="yes"/>
      <point x="86" y="422"/>
      <point x="202" y="622"/>
      <point x="232" y="663"/>
      <point x="240" y="663" type="qcurve" smooth="yes"/>
      <point x="251" y="663"/>
      <point x="332" y="614" type="line" smooth="yes"/>
      <point x="342" y="607"/>
    </contour>
  </outline>
</glyph>
<glyph name="minus" format="1">
  <advance width="750"/>
  <unicode hex="2212"/>
  <outline>
    <contour>
      <point x="124" y="231" type="line" smooth="no"/>
      <point x="124" y="366" type="line" smooth="no"/>
      <point x="709" y="366" type="line" smooth="no"/>
      <point x="709" y="231" type="line" smooth="no"/>
    </contour>
  </outline>
</glyph>
<glyph name="fl" format="1">
  <advance width="795"/>
  <unicode hex="fb02"/>
  <outline>
    <contour>
      <point x="749" y="131" type="qcurve" smooth="yes"/>
      <point x="749" y="83"/>
      <point x="692" y="44" type="qcurve" smooth="yes"/>
      <point x="654" y="18"/>
      <point x="573" y="-10"/>
      <point x="534" y="-10" type="qcurve" smooth="yes"/>
      <point x="440" y="-10"/>
      <point x="440" y="70" type="qcurve" smooth="yes"/>
      <point x="440" y="75"/>
      <point x="441" y="87"/>
      <point x="442" y="93" type="qcurve" smooth="yes"/>
      <point x="453" y="171" type="line" smooth="yes"/>
      <point x="457" y="197"/>
      <point x="477" y="314"/>
      <point x="491" y="408" type="qcurve" smooth="yes"/>
      <point x="511" y="541" type="line" smooth="yes"/>
      <point x="514" y="561"/>
      <point x="518" y="585"/>
      <point x="518" y="589" type="qcurve" smooth="yes"/>
      <point x="518" y="608"/>
      <point x="501" y="608" type="qcurve" smooth="yes"/>
      <point x="495" y="608"/>
      <point x="484" y="604"/>
      <point x="478" y="604" type="qcurve" smooth="yes"/>
      <point x="449" y="604"/>
      <point x="449" y="635" type="qcurve" smooth="yes"/>
      <point x="449" y="662"/>
      <point x="478" y="694"/>
      <point x="510" y="708" type="qcurve" smooth="yes"/>
      <point x="553" y="728"/>
      <point x="650" y="748"/>
      <point x="695" y="748" type="qcurve" smooth="yes"/>
      <point x="723" y="748"/>
      <point x="749" y="729"/>
      <point x="749" y="706" type="qcurve" smooth="yes"/>
      <point x="749" y="697"/>
      <point x="746" y="669" type="qcurve" smooth="yes"/>
      <point x="735" y="567" type="line" smooth="yes"/>
      <point x="729" y="513"/>
      <point x="712" y="386"/>
      <point x="700" y="313" type="qcurve" smooth="yes"/>
      <point x="684" y="214" type="line" smooth="yes"/>
      <point x="681" y="194"/>
      <point x="681" y="184" type="qcurve" smooth="yes"/>
      <point x="681" y="170"/>
      <point x="689" y="158"/>
      <point x="700" y="158" type="qcurve" smooth="yes"/>
      <point x="706" y="158"/>
      <point x="718" y="162"/>
      <point x="723" y="162" type="qcurve" smooth="yes"/>
      <point x="749" y="162"/>
    </contour>
    <contour>
      <point x="418" y="634" type="qcurve" smooth="yes"/>
      <point x="418" y="592"/>
      <point x="367" y="541"/>
      <point x="331" y="541" type="qcurve" smooth="yes"/>
      <point x="291" y="541"/>
      <point x="254" y="577" type="qcurve" smooth="yes"/>
      <point x="243" y="588"/>
      <point x="226" y="609"/>
      <point x="212" y="609" type="qcurve" smooth="yes"/>
      <point x="201" y="609"/>
      <point x="187" y="593"/>
      <point x="187" y="581" type="qcurve" smooth="yes"/>
      <point x="187" y="559"/>
      <point x="211" y="543" type="qcurve" smooth="yes"/>
      <point x="227" y="532"/>
      <point x="275" y="525"/>
      <point x="297" y="512" type="qcurve" smooth="yes"/>
      <point x="314" y="502"/>
      <point x="330" y="479"/>
      <point x="341" y="459"/>
      <point x="350" y="446"/>
      <point x="361" y="446" type="qcurve" smooth="yes"/>
      <point x="372" y="446" type="line" smooth="yes"/>
      <point x="382" y="446"/>
      <point x="394" y="447"/>
      <point x="396" y="447" type="qcurve" smooth="yes"/>
      <point x="410" y="447"/>
      <point x="410" y="433" type="qcurve" smooth="yes"/>
      <point x="410" y="431"/>
      <point x="409" y="425"/>
      <point x="409" y="422" type="qcurve" smooth="yes"/>
      <point x="402" y="342" type="line" smooth="yes"/>
      <point x="402" y="338"/>
      <point x="401" y="334"/>
      <point x="401" y="333" type="qcurve" smooth="yes"/>
      <point x="401" y="324"/>
      <point x="384" y="318"/>
      <point x="369" y="318" type="qcurve" smooth="yes"/>
      <point x="355" y="318" type="line" smooth="yes"/>
      <point x="345" y="318"/>
      <point x="339" y="303"/>
      <point x="337" y="289" type="qcurve" smooth="yes"/>
      <point x="322" y="201"/>
      <point x="301" y="47"/>
      <point x="296" y="-19" type="qcurve" smooth="yes"/>
      <point x="294" y="-40"/>
      <point x="293" y="-76"/>
      <point x="289" y="-106"/>
      <point x="279" y="-130"/>
      <point x="269" y="-139" type="qcurve" smooth="yes"/>
      <point x="257" y="-150"/>
      <point x="222" y="-169"/>
      <point x="181" y="-184"/>
      <point x="137" y="-193"/>
      <point x="116" y="-193" type="qcurve" smooth="yes"/>
      <point x="63" y="-193"/>
      <point x="5" y="-155"/>
      <point x="5" y="-126" type="qcurve" smooth="yes"/>
      <point x="5" y="-108"/>
      <point x="23" y="-88"/>
      <point x="31" y="-78" type="qcurve" smooth="yes"/>
      <point x="41" y="-64"/>
      <point x="55" y="-24"/>
      <point x="62" y="3" type="qcurve" smooth="yes"/>
      <point x="78" y="71"/>
      <point x="98" y="180"/>
      <point x="108" y="260"/>
      <point x="112" y="307"/>
      <point x="112" y="313" type="qcurve" smooth="yes"/>
      <point x="112" y="321"/>
      <point x="109" y="324"/>
      <point x="101" y="324" type="qcurve" smooth="yes"/>
      <point x="60" y="324" type="line" smooth="no"/>
      <point x="46" y="324" type="line" smooth="yes"/>
      <point x="33" y="324"/>
      <point x="24" y="328"/>
      <point x="24" y="340" type="qcurve" smooth="yes"/>
      <point x="24" y="346" type="line" smooth="no"/>
      <point x="29" y="418" type="line" smooth="yes"/>
      <point x="31" y="438"/>
      <point x="41" y="446"/>
      <point x="61" y="446" type="qcurve" smooth="yes"/>
      <point x="103" y="446" type="line" smooth="yes"/>
      <point x="110" y="446"/>
      <point x="110" y="451" type="qcurve" smooth="yes"/>
      <point x="110" y="460"/>
      <point x="93" y="473"/>
      <point x="84" y="484" type="qcurve" smooth="yes"/>
      <point x="56" y="516"/>
      <point x="56" y="568" type="qcurve" smooth="yes"/>
      <point x="56" y="605"/>
      <point x="89" y="672"/>
      <point x="148" y="722"/>
      <point x="228" y="752"/>
      <point x="276" y="752" type="qcurve" smooth="yes"/>
      <point x="344" y="752"/>
      <point x="418" y="686"/>
    </contour>
  </outline>
</glyph>
